<?xml version="1.0" standalone="no"?>
<!DOCTYPE svg PUBLIC "-//W3C//DTD SVG 20010904//EN"
 "http://www.w3.org/TR/2001/REC-SVG-20010904/DTD/svg10.dtd">
<svg version="1.0" xmlns="http://www.w3.org/2000/svg"
 width="1024.000000pt" height="1024.000000pt" viewBox="0 0 1024.000000 1024.000000"
 preserveAspectRatio="xMidYMid meet">

<g transform="translate(0.000000,1024.000000) scale(0.100000,-0.100000)"
fill="#000000" stroke="none">
<path d="M0 5120 l0 -5120 5120 0 5120 0 0 5120 0 5120 -5120 0 -5120 0 0
-5120z m5144 4635 c9 -132 21 -361 26 -510 6 -148 13 -289 16 -312 6 -48 -24
-41 259 -67 148 -14 498 -76 590 -105 17 -5 69 -21 117 -35 221 -65 527 -202
788 -353 l85 -49 23 28 c49 59 146 57 197 -3 28 -34 31 -66 10 -124 -15 -40
-15 -40 17 -65 277 -215 416 -345 606 -565 151 -176 307 -402 406 -592 44 -83
39 -82 161 -56 57 11 136 16 280 17 182 1 207 -1 280 -22 44 -13 94 -30 111
-37 28 -12 38 -11 90 10 79 31 114 40 114 27 0 -6 -27 -19 -60 -28 -33 -9 -60
-19 -60 -23 0 -3 19 -26 43 -51 24 -25 56 -66 73 -93 16 -26 37 -50 46 -53 39
-12 81 -104 48 -104 -5 0 -10 6 -10 14 0 8 -8 23 -17 35 -17 21 -18 18 -19
-101 0 -76 -7 -148 -17 -188 -19 -80 -96 -280 -107 -280 -5 0 -1 14 7 32 9 17
16 47 15 67 0 28 1 32 8 16 5 -11 9 -17 9 -13 1 3 4 14 8 24 4 12 3 15 -5 10
-14 -8 -15 -5 -6 19 6 13 9 14 16 3 6 -9 7 -5 3 12 -5 20 -4 22 5 10 9 -12 11
-9 8 17 -3 18 -1 30 3 27 13 -8 22 66 23 196 l1 125 -40 78 c-22 43 -48 86
-59 95 -13 12 -11 4 8 -27 16 -24 39 -73 53 -109 21 -57 24 -80 22 -171 -2
-87 -8 -121 -32 -191 -16 -47 -32 -105 -36 -130 -9 -56 -62 -154 -74 -137 -6
8 -7 6 -3 -5 3 -10 0 -23 -7 -31 -7 -7 -23 -33 -36 -57 -33 -61 -77 -120 -85
-115 -3 3 -4 2 -2 -1 2 -3 -7 -16 -21 -30 -13 -13 -21 -29 -17 -36 4 -6 3 -8
-2 -5 -6 3 -25 -18 -44 -46 -63 -95 -157 -200 -343 -384 -102 -100 -183 -184
-181 -186 3 -2 -3 -10 -13 -18 -15 -12 -16 -12 -8 1 5 8 -16 -9 -46 -38 -30
-30 -128 -113 -219 -187 -91 -73 -203 -168 -250 -212 -91 -84 -213 -179 -295
-229 -27 -16 -50 -35 -50 -41 0 -16 -388 -299 -417 -306 -6 -1 -20 -11 -32
-22 -19 -18 -212 -143 -403 -261 -67 -41 -88 -64 -59 -64 8 0 35 -17 59 -37
24 -21 75 -57 112 -80 l69 -41 -35 -21 c-37 -23 -59 -27 -59 -11 0 6 -6 10
-13 10 -22 0 -138 91 -130 103 3 6 1 7 -5 3 -16 -10 -312 195 -312 216 0 5 7
16 15 25 21 20 12 28 -14 13 -17 -8 -21 -8 -21 4 0 19 27 46 46 46 13 0 19
-13 15 -34 -1 -5 9 -2 23 8 30 19 40 21 30 4 -5 -7 3 -5 16 4 14 9 24 21 23
26 -1 6 9 9 22 7 13 -1 22 2 19 6 -5 8 128 99 145 99 22 0 193 108 331 209 30
23 80 54 110 70 30 16 65 39 77 50 12 12 24 21 27 21 3 0 22 11 42 25 20 14
31 25 25 25 -7 0 -52 -27 -100 -59 -49 -33 -106 -68 -127 -79 -21 -11 -71 -44
-111 -74 -90 -67 -256 -171 -278 -174 -27 -4 -205 -115 -200 -124 3 -5 0 -12
-6 -16 -8 -4 -9 -3 -5 4 11 18 -5 14 -26 -5 -16 -15 -21 -15 -28 -3 -5 9 -5
19 2 27 16 20 32 15 17 -4 -13 -16 -12 -17 3 -4 10 7 15 17 12 22 -3 5 1 9 8
9 8 0 47 20 87 45 40 25 76 45 81 45 4 0 24 14 45 30 42 33 75 42 35 9 l-25
-21 32 18 c23 12 29 21 20 26 -8 5 -5 8 8 8 11 0 31 9 45 20 14 11 29 20 33
20 10 0 120 74 159 105 14 12 64 43 110 69 45 26 98 60 117 76 18 17 37 30 41
30 4 0 23 13 41 30 19 16 42 30 52 30 11 0 15 4 11 12 -4 6 -3 8 4 4 8 -5 59
28 82 54 19 21 71 49 83 45 8 -4 33 10 58 31 58 47 56 46 34 38 -14 -4 -11 2
10 20 32 27 51 34 39 14 -5 -9 -3 -9 9 1 9 7 15 17 12 21 -6 9 29 42 41 38 5
-2 9 0 9 4 0 4 16 24 35 44 30 32 25 30 -30 -14 -156 -126 -341 -255 -589
-412 -57 -36 -138 -89 -180 -117 -42 -29 -107 -71 -146 -94 -38 -23 -124 -75
-190 -114 -66 -40 -150 -87 -187 -105 -38 -18 -68 -36 -68 -40 0 -4 -13 -5
-30 -2 -17 2 -30 10 -30 18 0 8 -7 14 -15 14 -20 0 -19 17 3 29 23 13 1 37
-25 27 -10 -4 -20 -7 -23 -8 -3 0 -13 -4 -22 -9 -10 -6 -19 -5 -23 1 -5 8 16
16 93 33 14 3 22 0 22 -8 0 -7 7 -16 16 -19 15 -6 15 -4 0 19 -9 14 -14 30
-11 35 3 6 -3 10 -13 10 -11 0 -30 15 -43 35 -13 19 -27 35 -30 35 -3 0 -24
-9 -48 -21 -39 -19 -44 -19 -67 -4 -13 8 -24 20 -24 25 0 6 -7 10 -15 10 -8 0
-15 7 -15 15 0 20 -46 30 -76 16 -32 -14 -31 -14 -37 9 -3 11 -12 20 -21 20
-9 0 -16 7 -16 15 0 8 7 15 15 15 10 0 -7 24 -42 60 -31 33 -63 60 -70 60 -7
0 -28 14 -46 30 -19 17 -39 30 -44 30 -6 0 -18 10 -29 21 -14 16 -16 23 -6 26
13 5 7 23 -9 23 -6 0 -7 -4 -4 -10 12 -20 -12 -9 -35 15 -13 14 -36 32 -51 39
-24 12 -29 11 -43 -5 -19 -23 -21 -43 -3 -33 9 5 9 4 0 -6 -10 -11 -16 -10
-34 6 -13 10 -19 13 -15 6 13 -21 -2 -62 -19 -55 -9 3 -24 -2 -34 -11 -17 -16
-19 -15 -25 15 -6 29 -7 31 -19 15 -7 -10 -27 -18 -45 -18 -30 -1 -32 -3 -32
-39 0 -44 -16 -60 -28 -28 -14 38 -20 3 -28 -165 -4 -86 -10 -156 -15 -156 -7
0 -2 -210 6 -218 1 -2 45 19 96 46 122 63 145 69 160 40 7 -12 12 -36 11 -52
-1 -43 14 -64 63 -87 42 -20 85 -19 85 2 0 5 7 9 16 9 14 0 14 -3 4 -15 -12
-14 -9 -17 16 -14 3 0 14 -11 25 -25 24 -31 39 -33 39 -7 0 11 4 23 10 26 6 3
10 -5 10 -19 0 -14 -8 -30 -17 -36 -15 -9 -13 -10 11 -5 25 5 28 3 24 -13 -4
-13 -1 -19 10 -18 8 0 17 -5 19 -11 3 -8 -5 -13 -21 -13 -16 0 -26 -6 -26 -14
0 -8 -32 -30 -72 -50 -40 -20 -68 -36 -63 -36 13 -1 -452 -232 -539 -269 -5
-2 -6 1 -2 7 5 8 -2 8 -24 1 -36 -13 -40 -24 -5 -15 14 4 25 5 25 3 0 -8 -252
-127 -268 -127 -15 0 41 32 77 45 42 15 123 65 105 65 -23 0 -104 -33 -104
-42 0 -6 -7 -8 -15 -4 -8 3 -15 2 -15 -2 0 -5 -37 -26 -82 -47 -46 -21 -85
-42 -88 -46 -9 -14 -100 -50 -109 -45 -12 8 -153 -55 -168 -74 -9 -11 -12 -12
-13 -2 0 10 -3 10 -15 -1 -16 -16 -349 -131 -340 -118 2 5 58 27 124 51 141
50 197 83 67 39 -102 -34 -127 -33 -34 2 35 13 74 29 88 36 14 7 32 13 40 13
13 0 13 2 1 9 -11 7 -5 11 22 16 20 4 37 12 37 17 0 5 39 27 88 49 159 74 247
117 267 133 19 16 19 16 -5 7 -14 -5 -55 -23 -93 -40 -37 -17 -69 -31 -71 -31
-2 0 -106 -50 -230 -111 -210 -102 -306 -144 -306 -134 0 4 83 44 220 108 59
28 137 77 122 77 -7 0 -24 -7 -37 -16 -13 -9 -28 -13 -33 -10 -5 3 -21 -3 -34
-13 -33 -26 -218 -111 -241 -111 -6 0 13 12 42 26 74 37 56 41 -26 6 -37 -17
-147 -62 -243 -101 -96 -38 -266 -111 -378 -161 -112 -51 -205 -90 -208 -88
-4 5 333 166 521 249 250 110 374 167 396 183 32 22 16 20 -31 -4 -21 -11 -65
-29 -97 -41 -32 -12 -94 -38 -138 -59 -44 -21 -98 -41 -120 -44 -31 -5 -26 -2
23 14 34 12 77 31 95 43 32 21 99 53 165 77 18 7 31 15 28 17 -5 6 -88 -19
-141 -42 -35 -15 -73 -25 -205 -55 -19 -4 -44 -11 -55 -15 -18 -6 -18 -5 -3 5
10 6 64 24 120 40 57 16 130 41 163 54 33 14 70 26 82 26 12 0 24 4 27 9 8 13
-70 -4 -149 -33 -38 -13 -99 -32 -135 -41 -70 -17 -179 -54 -195 -65 -5 -4
-45 -22 -88 -39 -77 -31 -117 -40 -87 -21 26 17 1 11 -38 -9 -20 -10 -57 -24
-81 -31 -31 -8 -40 -14 -31 -20 17 -10 -57 -43 -78 -35 -13 5 -363 -159 -556
-260 -344 -180 -709 -445 -767 -557 -28 -54 -24 -79 14 -104 64 -43 89 -52
121 -43 17 4 105 15 196 25 177 17 274 35 495 90 151 38 383 109 480 149 33
13 112 43 175 66 186 67 211 77 223 87 7 6 50 23 97 40 138 49 379 151 1100
467 179 78 875 423 1068 529 66 36 123 66 127 66 4 0 34 16 67 36 69 42 93 40
77 -6 -9 -24 -26 -39 -83 -67 -39 -19 -105 -55 -146 -78 -80 -45 -733 -375
-743 -375 -3 0 -66 -29 -141 -65 -74 -35 -179 -83 -233 -106 -54 -23 -132 -57
-173 -76 -41 -19 -113 -50 -160 -68 -47 -19 -152 -64 -235 -100 -82 -36 -172
-75 -200 -86 -27 -11 -72 -31 -100 -43 -27 -13 -85 -34 -127 -47 -42 -13 -74
-27 -72 -31 3 -4 -13 -8 -36 -8 -29 0 -39 -4 -34 -12 5 -8 0 -9 -14 -6 -13 4
-20 2 -16 -4 3 -5 0 -8 -7 -7 -8 1 -25 -3 -39 -9 -282 -120 -790 -282 -1040
-331 -141 -27 -392 -61 -454 -61 l-50 0 55 -49 c166 -148 167 -384 2 -561
-123 -134 -315 -174 -508 -107 -91 31 -245 98 -245 105 0 4 35 60 79 127 97
149 210 327 241 380 47 80 149 233 159 240 6 3 11 1 11 -6 0 -7 13 7 28 32 87
135 452 402 830 606 l84 46 -48 40 c-27 22 -125 117 -219 211 -242 244 -425
491 -543 733 -26 54 -47 99 -48 101 0 1 -61 -29 -135 -67 -120 -62 -163 -76
-216 -72 -7 1 -13 5 -13 10 0 5 17 7 38 4 31 -4 53 2 118 36 123 64 195 107
188 113 -10 10 -62 -9 -122 -45 -31 -19 -76 -44 -100 -56 -71 -36 -106 -7 -62
49 l20 25 -12 -32 c-16 -43 -6 -50 40 -29 70 33 212 120 212 131 0 5 -21 60
-46 120 -62 150 -146 384 -183 508 -168 572 -142 1262 74 1878 l44 126 -27 22
c-27 21 -27 21 -1 6 74 -44 187 -26 256 40 40 39 48 57 46 113 -1 6 4 12 10
12 7 0 7 4 -1 12 -7 7 -12 20 -12 30 0 11 -11 30 -25 44 -14 14 -25 29 -25 34
0 4 -10 6 -22 4 -13 -2 -18 -2 -12 1 19 9 5 41 -23 56 -21 11 -27 11 -30 2 -7
-19 -20 -16 -26 7 -3 10 -21 27 -41 37 -20 9 -36 20 -36 25 0 15 43 8 55 -8
12 -17 95 -29 95 -14 0 12 -26 30 -51 36 -96 19 -179 -9 -229 -78 -38 -51 -39
-37 -2 17 55 79 157 124 249 110 25 -4 51 -9 58 -11 8 -3 27 21 48 59 45 80
169 263 261 386 39 52 86 113 104 137 41 56 367 384 451 455 350 295 827 562
1261 705 285 94 544 142 911 169 l86 7 7 75 c9 114 7 223 -4 223 -5 0 -10 5
-10 10 0 6 6 10 13 10 10 0 14 18 16 63 8 252 44 762 52 741 4 -10 14 -127 23
-259z m-404 9 c18 -21 17 -103 -1 -115 -8 -5 -33 -9 -55 -9 l-42 0 -4 63 c-3
34 -3 65 -1 70 8 14 90 7 103 -9z m881 6 c12 0 16 -5 13 -14 -4 -10 -16 -13
-41 -9 -31 5 -35 4 -31 -13 2 -12 13 -20 31 -22 37 -4 35 -22 -3 -22 -23 0
-31 -5 -36 -25 -10 -42 -34 -31 -28 13 15 109 13 105 46 98 17 -3 39 -6 49 -6z
m373 -66 c33 -13 16 -27 -24 -20 -36 6 -40 4 -40 -14 0 -16 7 -20 30 -20 21 0
30 -5 30 -16 0 -13 -7 -15 -35 -10 -30 6 -35 4 -35 -13 0 -15 8 -21 32 -23 17
-2 34 -9 36 -17 4 -11 -5 -13 -44 -7 -26 3 -52 10 -56 14 -4 4 -3 23 2 42 5
19 12 47 15 63 5 23 10 27 39 27 19 0 41 -3 50 -6z m306 -86 c0 -7 -7 -35 -15
-61 -14 -48 -14 -48 11 -57 14 -6 30 -10 35 -10 5 0 9 -4 9 -10 0 -13 -14 -13
-61 2 -22 6 -39 17 -39 23 0 11 12 50 35 113 2 6 9 12 15 12 5 0 10 -6 10 -12z
m323 -106 c3 -4 7 -38 9 -76 2 -49 -1 -71 -9 -73 -8 -3 -13 4 -13 16 0 13 -12
26 -31 36 -28 15 -32 15 -43 -1 -9 -12 -15 -14 -20 -5 -10 16 63 111 85 111
10 0 20 -3 22 -8z m-2953 -16 c0 -9 -12 -16 -32 -18 -52 -5 -44 -33 9 -33 50
0 68 -15 59 -48 -6 -24 -47 -47 -82 -47 -26 0 -14 21 15 26 17 4 31 14 34 25
5 18 1 20 -41 17 -43 -3 -47 -1 -56 26 -9 24 -7 31 13 47 28 23 81 26 81 5z
m864 -32 c10 -26 7 -31 -23 -44 -34 -13 -51 -7 -51 19 0 37 61 59 74 25z
m-1163 -121 c12 -21 29 -43 37 -50 7 -6 11 -17 7 -24 -6 -8 -10 -7 -17 5 -5 9
-22 16 -40 16 -27 0 -30 -3 -24 -24 4 -15 0 -28 -9 -36 -12 -10 -15 -7 -20 17
-4 15 -13 47 -20 69 -12 39 -12 42 8 52 38 18 55 13 78 -25z m3720 -24 c16
-11 29 -27 29 -35 0 -20 -10 -17 -42 13 -25 24 -28 25 -34 8 -5 -13 2 -25 27
-46 33 -27 34 -29 18 -56 -11 -20 -22 -27 -38 -26 -28 4 -70 34 -71 51 0 18
14 15 35 -8 20 -23 55 -27 55 -7 0 7 -13 23 -30 35 -31 24 -39 59 -18 80 17
17 36 15 69 -9z m-2746 -49 c18 -20 18 -21 -2 -41 -17 -17 -24 -19 -42 -10
-23 13 -28 40 -9 59 17 17 32 15 53 -8z m-1281 -96 c25 -55 27 -67 15 -75 -22
-14 -33 -11 -79 22 l-44 32 22 -37 c23 -39 28 -66 13 -66 -8 0 -61 112 -61
131 0 20 39 7 81 -25 24 -19 45 -34 46 -32 2 2 -8 24 -23 49 -23 42 -25 67 -6
67 4 0 20 -30 36 -66z m4407 -65 c22 -17 36 -35 33 -41 -4 -6 -10 -6 -17 1
-20 20 -44 11 -62 -23 -16 -29 -17 -37 -6 -50 18 -22 1 -20 -29 4 l-25 19 32
45 c18 26 30 52 27 61 -9 23 4 18 47 -16z m-2994 -31 c-3 -7 -5 -2 -5 12 0 14
2 19 5 13 2 -7 2 -19 0 -25z m1767 -23 c5 -16 1 -21 -14 -22 -26 -2 -33 12
-20 38 13 22 24 17 34 -16z m-3501 -43 c36 -38 35 -73 -4 -106 -36 -31 -46
-32 -53 -8 -4 10 -20 34 -37 53 l-30 34 32 28 c42 34 59 34 92 -1z m1747 -12
c0 -10 -5 -22 -10 -25 -13 -8 -24 20 -16 41 8 20 26 9 26 -16z m477 4 c-9 -9
-28 6 -21 18 4 6 10 6 17 -1 6 -6 8 -13 4 -17z m593 -14 c0 -5 -4 -10 -10 -10
-5 0 -10 5 -10 10 0 6 5 10 10 10 6 0 10 -4 10 -10z m-1540 -25 c0 -9 -9 -15
-25 -15 -24 0 -32 10 -18 23 12 13 43 7 43 -8z m230 -30 c0 -8 -4 -15 -10 -15
-5 0 -10 7 -10 15 0 8 5 15 10 15 6 0 10 -7 10 -15z m710 -14 c0 -5 -7 -12
-16 -15 -14 -5 -15 -4 -4 9 14 17 20 19 20 6z m845 -61 c3 -5 1 -10 -4 -10 -6
0 -11 5 -11 10 0 6 2 10 4 10 3 0 8 -4 11 -10z m-2194 -53 c-10 -9 -11 -8 -5
6 3 10 9 15 12 12 3 -3 0 -11 -7 -18z m2893 7 c24 -9 21 -61 -4 -69 -26 -8
-50 11 -50 40 0 34 17 43 54 29z m-3129 -124 c-3 -5 -11 -10 -16 -10 -6 0 -7
5 -4 10 3 6 11 10 16 10 6 0 7 -4 4 -10z m-35 -15 c0 -2 -13 -11 -30 -20 -38
-19 -40 -11 -2 9 31 17 32 18 32 11z m-70 -40 c0 -2 -18 -14 -40 -25 -22 -11
-40 -18 -40 -15 0 2 17 13 38 24 42 23 42 23 42 16z m-1150 -31 c0 -3 -9 -19
-21 -36 -26 -36 -19 -47 17 -24 33 22 43 13 17 -17 -21 -23 -21 -47 2 -47 7 0
20 11 29 25 9 14 21 25 26 25 19 0 10 -29 -20 -62 l-30 -33 -52 52 -52 53 34
35 c32 33 50 43 50 29z m6047 -16 c25 -23 33 -83 11 -75 -7 2 -12 10 -10 17 4
18 -26 60 -44 60 -13 0 -12 -6 6 -35 21 -34 21 -37 5 -61 -25 -38 -45 -41 -72
-10 -22 26 -31 66 -15 66 4 0 13 -13 19 -30 13 -34 43 -41 43 -10 0 10 -5 30
-11 44 -24 53 23 77 68 34z m-690 -54 c-9 -9 -28 6 -21 18 4 6 10 6 17 -1 6
-6 8 -13 4 -17z m-4707 -136 c20 -41 20 -42 1 -20 -10 12 -24 22 -30 22 -6 0
-11 9 -11 20 0 33 18 23 40 -22z m45 -58 c-3 -5 -15 -15 -26 -21 -18 -9 -19
-9 -7 10 7 12 19 21 26 21 7 0 10 -4 7 -10z m-935 -134 c0 -28 -29 -56 -60
-56 -31 0 -109 73 -90 85 7 4 25 -6 44 -24 35 -34 57 -39 76 -17 9 12 4 23
-29 59 -22 24 -38 47 -34 51 11 10 93 -76 93 -98z m630 54 c0 -11 -7 -20 -15
-20 -15 0 -21 21 -8 33 12 13 23 7 23 -13z m190 -3 c0 -2 -10 -12 -22 -23
l-23 -19 19 23 c18 21 26 27 26 19z m5557 -14 c4 -9 1 -19 -5 -21 -7 -2 -10
-8 -6 -13 6 -11 2 -11 -20 -3 -19 7 -21 40 -3 47 21 9 27 7 34 -10z m262 -17
l23 -25 -28 -25 c-38 -33 -51 -33 -25 0 31 40 14 48 -29 14 -37 -29 -60 -38
-60 -22 0 8 81 81 91 82 3 0 16 -11 28 -24z m161 -206 c0 -10 -74 -82 -91 -88
-24 -9 -4 24 34 59 43 39 57 46 57 29z m-7073 -43 c10 -13 26 -26 37 -30 29
-11 1 -39 -31 -31 -33 9 -47 -13 -27 -43 8 -13 12 -23 9 -23 -14 0 -105 76
-105 88 0 22 48 62 74 62 14 0 33 -10 43 -23z m6741 -45 c7 -49 -52 -74 -64
-27 -10 39 2 57 33 53 20 -2 29 -9 31 -26z m-423 -3 c-4 -5 1 -20 12 -32 l18
-22 -25 20 c-14 11 -27 21 -30 23 -2 2 2 7 10 12 19 13 23 12 15 -1z m-187
-11 c-6 -18 -28 -21 -28 -4 0 9 7 16 16 16 9 0 14 -5 12 -12z m1062 -15 c0 -5
-7 -38 -16 -75 -12 -48 -20 -65 -30 -61 -8 3 -14 9 -14 15 0 5 -4 7 -9 4 -10
-6 -71 49 -71 64 0 4 28 19 63 33 68 28 77 31 77 20z m-972 -61 c12 9 12 6 -2
-10 -14 -16 -22 -19 -32 -11 -7 6 -10 17 -7 26 5 13 7 13 15 -1 8 -14 12 -15
26 -4z m-6318 -120 c0 -10 -7 -9 -27 3 -52 31 -96 72 -89 83 8 14 116 -66 116
-86z m7340 70 c0 -4 -20 -28 -45 -52 -38 -37 -47 -42 -56 -30 -7 11 0 24 32
53 39 34 69 47 69 29z m147 -178 c4 -10 0 -22 -9 -28 -8 -6 -18 -24 -22 -41
-9 -36 -24 -55 -42 -55 -24 0 -15 37 13 59 31 25 24 40 -9 17 -24 -17 -68 -22
-68 -7 0 8 105 68 123 70 4 1 10 -6 14 -15z m-7663 -42 c27 -15 52 -33 54 -41
3 -8 -17 -1 -52 18 -66 38 -73 27 -13 -23 37 -32 40 -36 19 -36 -32 0 -57 15
-82 50 -18 25 -19 34 -10 45 17 20 27 19 84 -13z m7726 -70 c0 -11 -14 -25
-32 -35 -18 -9 -43 -24 -55 -33 -21 -15 -23 -15 -30 2 -3 10 -2 19 4 21 5 2
30 17 54 33 53 34 59 35 59 12z m-7725 -47 c-3 -8 -7 -22 -10 -30 -4 -13 -9
-13 -46 0 -62 22 -66 19 -23 -20 21 -19 33 -34 27 -35 -21 0 -126 71 -117 80
5 5 43 11 84 13 41 1 78 4 82 5 4 1 5 -5 3 -13z m7865 -205 c7 -16 9 -40 6
-52 -10 -38 -116 -100 -116 -69 0 5 7 11 15 15 16 6 20 43 6 65 -6 9 -18 11
-35 7 -47 -12 -27 9 37 36 34 15 65 27 68 28 4 0 12 -13 19 -30z m-8104 -10
c-3 -11 -9 -29 -12 -40 -5 -15 0 -22 20 -30 23 -9 31 -6 56 20 44 45 53 36 24
-26 -20 -42 -41 -43 -101 -9 l-43 26 20 39 c21 41 47 56 36 20z m874 -41 c0
-6 -4 -7 -10 -4 -5 3 -10 11 -10 16 0 6 5 7 10 4 6 -3 10 -11 10 -16z m-27
-104 c-3 -8 -9 -15 -14 -15 -10 0 -12 24 -3 33 11 11 24 -3 17 -18z m-143 -10
c0 -8 -4 -15 -10 -15 -5 0 -10 7 -10 15 0 8 5 15 10 15 6 0 10 -7 10 -15z
m-737 -127 c21 -25 16 -65 -10 -85 -41 -32 -113 -2 -113 46 0 67 78 92 123 39z
m677 -52 c0 -3 -4 -8 -10 -11 -5 -3 -10 -1 -10 4 0 6 5 11 10 11 6 0 10 -2 10
-4z m115 -106 c3 -5 -1 -10 -9 -10 -9 0 -16 5 -16 10 0 6 4 10 9 10 6 0 13 -4
16 -10z m35 -20 c0 -5 -4 -10 -10 -10 -5 0 -10 5 -10 10 0 6 5 10 10 10 6 0
10 -4 10 -10z m-1014 -102 c-19 -69 -19 -68 3 -68 16 0 21 6 21 25 0 14 5 25
10 25 6 0 10 -9 10 -20 0 -10 12 -31 27 -45 33 -29 23 -31 -52 -8 -59 18 -63
26 -44 82 12 35 35 43 25 9z m114 -53 c0 -29 -15 -33 -29 -6 -11 20 -5 31 16
31 7 0 13 -11 13 -25z m965 -35 c3 -5 2 -10 -4 -10 -5 0 -13 5 -16 10 -3 6 -2
10 4 10 5 0 13 -4 16 -10z m-1061 -202 c18 -25 20 -56 7 -77 -8 -12 -19 -11
-74 4 -64 17 -65 18 -56 43 16 42 29 52 70 52 28 0 42 -6 53 -22z m8307 -391
c-10 -9 -11 -8 -5 6 3 10 9 15 12 12 3 -3 0 -11 -7 -18z m-55 -96 c-25 -39
-48 -71 -51 -71 -2 0 17 33 43 74 25 41 48 73 50 71 2 -1 -17 -35 -42 -74z
m418 33 c19 -18 21 -45 4 -62 -16 -16 -44 -15 -62 3 -17 17 -12 43 12 63 20
16 27 15 46 -4z m-8836 -126 c26 -26 3 -88 -33 -88 -21 0 -45 29 -45 54 0 28
18 46 45 46 12 0 26 -5 33 -12z m8350 -8 c-7 -10 -14 -17 -17 -15 -4 4 18 35
25 35 2 0 -1 -9 -8 -20z m-124 -165 c-9 -14 -18 -25 -21 -25 -5 0 5 18 20 38
17 22 18 13 1 -13z m426 -225 c0 -5 -2 -10 -4 -10 -3 0 -8 5 -11 10 -3 6 -1
10 4 10 6 0 11 -4 11 -10z m-660 -420 c-6 -74 -13 -149 -16 -166 -5 -28 -3
-31 35 -42 71 -22 113 -110 70 -147 -12 -11 -19 -15 -16 -9 19 32 -37 104 -80
104 -22 0 -83 -35 -100 -58 -22 -27 -15 -69 17 -106 24 -27 29 -39 22 -53 -5
-10 -20 -52 -32 -93 -92 -311 -309 -776 -461 -989 -41 -57 -47 -79 -26 -100
10 -11 8 -11 -13 -1 -21 11 -26 10 -35 -4 -56 -94 -254 -322 -432 -498 -237
-234 -430 -381 -718 -548 -207 -119 -314 -170 -542 -255 -386 -145 -722 -216
-1099 -233 l-149 -7 -12 -105 c-6 -58 -13 -127 -14 -155 -2 -57 -4 -48 -20
131 l-11 131 -147 7 c-456 21 -934 145 -1326 344 -70 35 -95 52 -84 57 10 4
38 -5 67 -19 55 -28 187 -68 196 -59 3 3 12 0 20 -6 8 -7 35 -19 60 -26 39
-12 44 -12 39 1 -3 8 -10 14 -17 14 -12 0 -137 82 -132 87 1 2 43 -12 92 -31
49 -18 114 -42 144 -54 109 -40 422 -132 518 -151 102 -20 266 -37 222 -22
-15 5 25 6 95 3 116 -4 181 -20 99 -24 -21 -1 -3 -4 41 -7 44 -3 86 -4 93 -2
16 4 16 91 0 91 -10 0 -9 3 1 9 11 7 13 61 7 322 -3 173 -9 344 -12 381 -5 47
-3 72 6 83 16 19 102 67 108 60 3 -3 0 -96 -6 -208 -11 -182 -18 -734 -10
-743 7 -6 294 25 369 40 41 9 113 30 160 47 52 19 135 38 219 50 185 27 192
28 186 45 -3 8 -1 14 4 14 6 0 10 -5 10 -11 0 -21 92 1 254 62 87 33 166 64
175 70 14 9 14 10 -2 5 -57 -18 -62 -12 -7 7 36 12 67 25 68 30 2 4 8 4 13 1
6 -3 42 14 82 37 40 24 99 56 132 73 33 16 100 63 149 103 81 65 106 79 236
130 80 31 163 67 185 81 85 52 165 105 165 108 0 6 -58 -27 -105 -58 -43 -29
-176 -88 -197 -88 -7 0 29 21 80 45 50 25 92 47 92 49 0 2 -29 -7 -65 -20 -36
-13 -65 -20 -65 -16 0 5 35 28 78 52 110 63 308 187 367 231 55 41 131 117 85
86 -103 -71 -290 -179 -290 -169 0 4 13 16 29 27 171 118 378 297 447 383 50
64 48 87 -3 42 -19 -17 -37 -29 -39 -27 -8 8 88 192 116 222 80 86 104 122
170 255 40 80 78 152 85 160 25 29 62 105 84 172 28 86 104 481 102 533 -1 22
8 78 18 125 22 93 30 165 35 308 3 102 -4 88 101 200 l40 43 3 -108 c2 -59 -1
-169 -8 -243z m-7972 227 c2 -10 1 -25 -2 -33 -5 -12 -9 -11 -26 6 -25 25 -56
26 -63 0 -6 -25 9 -38 53 -42 35 -3 35 -4 38 -55 3 -44 0 -53 -18 -63 -32 -17
-100 -3 -109 23 -9 23 -3 57 9 57 4 0 15 -11 24 -25 9 -14 26 -25 37 -25 16 0
20 5 17 27 -2 21 -10 29 -38 36 -47 12 -60 24 -60 58 0 44 24 60 84 57 40 -2
52 -7 54 -21z m8880 -9 c3 -26 -12 -40 -20 -18 -2 6 -17 12 -33 13 -26 2 -30
-2 -33 -24 -3 -24 1 -27 42 -33 50 -8 62 -26 51 -77 -8 -36 -42 -52 -90 -43
-37 7 -45 23 -45 90 0 39 -2 41 -25 36 -15 -2 -25 0 -25 7 0 7 6 11 13 10 27
-3 37 2 37 20 0 45 10 52 69 49 53 -3 56 -5 59 -30z m-270 -22 l20 -33 -92 -4
c-50 -2 -183 -2 -296 1 l-205 6 165 2 c91 1 203 5 248 9 76 5 85 8 93 30 13
34 44 29 67 -11z m-7935 -28 c-2 -5 -56 -8 -119 -8 -69 0 -113 -4 -109 -9 3
-5 1 -12 -5 -16 -5 -3 -10 1 -10 9 0 14 -28 16 -212 18 l-213 2 215 6 c300 7
459 6 453 -2z m-35 -25 c-26 -2 -71 -2 -100 0 -29 2 -8 3 47 3 55 0 79 -1 53
-3z m-310 -10 c-53 -2 -143 -2 -200 0 -57 1 -13 3 97 3 110 0 156 -2 103 -3z
m8268 -8 c-22 -17 -42 -19 -50 -6 -9 13 5 21 38 21 29 -1 30 -1 12 -15z
m-8149 -187 c-3 -7 -5 -2 -5 12 0 14 2 19 5 13 2 -7 2 -19 0 -25z m103 12 c0
-5 -4 -10 -10 -10 -5 0 -10 5 -10 10 0 6 5 10 10 10 6 0 10 -4 10 -10z m6244
-221 c-22 -24 -54 -43 -61 -36 -4 5 66 57 76 57 2 0 -4 -9 -15 -21z m1241
-159 c-19 -21 -88 -44 -108 -37 -7 3 2 8 18 11 42 10 95 37 95 49 0 6 3 7 7 4
3 -4 -2 -16 -12 -27z m-3275 -40 c0 -5 -2 -10 -4 -10 -3 0 -8 5 -11 10 -3 6
-1 10 4 10 6 0 11 -4 11 -10z m148 -90 c42 -50 209 -176 282 -214 69 -36 140
-84 140 -95 0 -5 -15 -11 -32 -14 -26 -3 -45 3 -87 32 -107 71 -205 131 -171
104 42 -34 98 -92 111 -115 8 -14 6 -18 -9 -18 -20 0 -28 5 -155 110 -51 42
-125 102 -164 134 -40 32 -73 65 -73 74 0 12 6 10 28 -9 43 -39 72 -57 33 -21
-19 17 -29 32 -23 32 7 0 30 -16 52 -36 22 -20 43 -35 46 -32 2 3 -16 20 -40
39 -45 34 -55 48 -36 50 6 1 14 2 19 3 5 0 13 4 17 9 14 14 27 7 62 -33z
m-241 8 c-3 -8 -6 -5 -6 6 -1 11 2 17 5 13 3 -3 4 -12 1 -19z m2168 -28 c-3
-5 -11 -10 -16 -10 -6 0 -7 5 -4 10 3 6 11 10 16 10 6 0 7 -4 4 -10z m-2290
-10 c3 -5 -1 -10 -10 -10 -9 0 -13 5 -10 10 3 6 8 10 10 10 2 0 7 -4 10 -10z
m3162 -32 c-3 -7 -5 -2 -5 12 0 14 2 19 5 13 2 -7 2 -19 0 -25z m-2906 -15
c13 -16 12 -17 -3 -4 -17 13 -22 21 -14 21 2 0 10 -8 17 -17z m-4121 -22 c0
-21 -26 -36 -36 -20 -9 15 3 39 21 39 8 0 15 -9 15 -19z m3868 -11 c0 -16 -4
-32 -9 -35 -5 -4 -9 10 -9 29 0 43 17 49 18 6z m346 -67 c37 -39 46 -55 39
-67 -8 -15 -12 -14 -37 9 -15 14 -31 25 -37 25 -5 0 -12 7 -15 15 -4 8 -9 13
-13 11 -3 -2 -6 15 -6 38 0 29 3 39 10 31 6 -6 32 -34 59 -62z m-171 -53 c43
-50 83 -88 88 -84 6 3 8 12 5 20 -4 12 -2 12 15 4 11 -6 29 -13 39 -15 16 -3
15 2 -10 37 -17 23 -28 44 -25 47 4 3 10 -1 15 -8 13 -21 169 -199 223 -254
26 -26 47 -52 47 -57 0 -5 -10 -12 -22 -15 -25 -8 -60 29 -50 54 3 8 1 12 -4
8 -5 -3 -18 6 -28 21 -18 26 -108 102 -121 102 -4 0 12 -18 34 -39 55 -52 53
-63 -3 -14 -63 56 -99 101 -90 115 4 7 -1 6 -11 -3 -16 -16 -16 -18 -1 -42 16
-23 16 -26 1 -41 -22 -22 -28 -20 -55 12 -13 15 -61 68 -107 118 -45 51 -83
97 -83 102 0 10 20 19 50 21 8 0 50 -40 93 -89z m2843 -203 c-41 -123 -67
-184 -105 -243 -83 -129 -64 -67 49 156 26 52 60 136 75 185 15 50 30 85 32
78 2 -7 -20 -86 -51 -176z m-2146 153 c13 -9 13 -11 0 -19 -16 -11 -43 5 -34
20 7 11 15 11 34 -1z m2485 -60 c0 -7 -6 -15 -12 -17 -8 -3 -13 4 -13 17 0 13
5 20 13 18 6 -3 12 -11 12 -18z m-3184 -47 c13 -16 12 -17 -3 -4 -10 7 -18 15
-18 17 0 8 8 3 21 -13z m2240 -40 c-11 -21 -20 -35 -21 -31 0 12 33 78 38 74
2 -2 -6 -21 -17 -43z m-2134 -23 c-1 -23 -57 -35 -57 -12 0 8 6 12 15 8 10 -4
15 1 15 14 0 13 5 17 14 14 8 -3 14 -14 13 -24z m623 -30 c0 -5 -5 -12 -11
-16 -8 -4 -7 -9 2 -15 11 -6 10 -9 -4 -15 -21 -8 -48 12 -40 32 3 7 9 11 14 8
5 -3 9 2 9 10 0 10 6 13 15 10 8 -4 15 -10 15 -14z m-650 -30 c0 -5 -2 -10 -4
-10 -3 0 -8 5 -11 10 -3 6 -1 10 4 10 6 0 11 -4 11 -10z m32 -22 c-5 -31 -5
-32 -14 -8 -7 20 0 36 18 40 0 0 -2 -14 -4 -32z m-4361 -4 c11 -14 10 -18 -6
-30 -10 -8 -22 -14 -26 -14 -14 0 -31 30 -25 45 7 20 40 19 57 -1z m7829 -43
c13 -25 13 -27 -6 -45 -22 -23 -43 -20 -56 9 -20 45 38 79 62 36z m-2545 -130
c94 -67 189 -137 212 -154 23 -18 81 -57 128 -87 47 -30 85 -55 85 -57 0 -1
-22 -14 -50 -28 -54 -27 -70 -21 -20 7 17 9 30 22 30 28 0 6 -4 9 -9 6 -5 -3
-14 1 -21 9 -6 7 -17 12 -25 9 -7 -3 -16 -1 -20 5 -15 25 -24 9 -10 -19 8 -16
15 -32 15 -35 0 -6 -46 24 -75 48 -5 4 -35 27 -66 50 -103 77 -169 132 -169
139 0 5 -6 8 -12 8 -7 0 -35 21 -63 46 l-50 46 52 -36 c28 -20 54 -33 57 -28
3 5 -7 15 -22 23 -15 8 -29 16 -32 19 -3 3 -16 11 -31 18 -42 22 -120 93 -113
104 11 18 37 3 209 -121z m-398 79 c6 0 13 6 16 13 3 9 8 9 17 1 9 -9 5 -17
-18 -33 -39 -27 -44 -27 -71 10 -19 25 -21 33 -10 40 9 5 21 1 34 -11 12 -11
26 -20 32 -20z m62 -43 c3 6 15 2 26 -10 20 -20 20 -20 0 -9 -13 7 -26 7 -38
1 -12 -7 -17 -6 -17 4 0 19 14 31 19 16 2 -7 6 -7 10 -2z m-239 -28 c24 -43 5
-65 -97 -116 -54 -27 -219 -110 -368 -184 -148 -75 -297 -146 -330 -159 -33
-13 -64 -29 -70 -36 -10 -12 -271 -134 -286 -134 -4 0 -38 -14 -74 -31 -37
-17 -69 -29 -71 -26 -2 2 31 19 73 37 107 46 303 137 333 155 14 8 61 32 105
52 44 21 132 64 195 97 112 58 172 88 295 148 33 15 75 40 93 53 19 13 69 39
113 56 43 18 81 39 84 46 2 8 1 11 -5 8 -11 -7 -33 32 -25 45 10 16 23 12 35
-11z m2159 -50 c-25 -65 -39 -92 -45 -86 -5 4 55 137 62 137 2 0 -5 -23 -17
-51z m-1864 31 c4 -6 -5 -10 -20 -10 -15 0 -24 4 -20 10 3 6 12 10 20 10 8 0
17 -4 20 -10z m-5229 -16 c-19 -18 -21 -40 -4 -50 7 -5 9 -2 5 9 -4 10 3 21
18 31 24 16 25 15 46 -26 20 -40 20 -42 3 -55 -10 -7 -22 -13 -27 -13 -16 0
-67 58 -67 77 0 20 18 43 33 43 5 0 1 -7 -7 -16z m4888 7 c4 -5 -56 -42 -131
-82 -183 -96 -726 -369 -833 -418 -341 -157 -538 -244 -615 -274 -95 -37 -408
-172 -462 -200 -18 -10 -38 -17 -45 -17 -23 0 242 120 592 268 52 22 157 70
233 106 75 36 185 88 245 115 140 66 780 389 812 410 14 10 45 26 70 36 25 11
63 29 85 42 48 26 43 25 49 14z m3329 -23 c-4 -18 -3 -20 6 -8 9 13 12 13 23
1 11 -11 11 -14 -1 -18 -11 -5 -11 -7 0 -14 10 -6 11 -9 2 -9 -7 0 -13 -6 -13
-14 0 -20 -12 -26 -38 -19 -14 3 -22 13 -22 26 0 16 3 18 12 9 20 -20 32 -13
14 7 -15 16 -15 22 -4 40 17 28 27 27 21 -1z m-2862 -90 c53 -51 135 -130 182
-175 l87 -82 -28 -19 c-70 -50 -63 -52 -164 54 -51 54 -105 109 -120 122 -34
31 -35 38 -6 46 18 4 20 8 11 17 -10 10 -17 9 -31 -4 -18 -16 -20 -16 -43 14
-13 17 -24 36 -24 41 0 5 -6 13 -14 17 -11 7 -8 14 14 35 15 14 31 26 34 26 3
0 49 -42 102 -92z m2922 67 c-3 -9 -8 -14 -10 -11 -3 3 -2 9 2 15 9 16 15 13
8 -4z m-3343 -23 c0 -9 -46 -52 -56 -52 -3 0 -20 -6 -37 -14 -18 -8 -70 -29
-116 -47 -46 -18 -79 -35 -73 -37 6 -2 39 9 74 23 95 39 98 40 34 2 -32 -19
-61 -39 -65 -45 -3 -5 -96 -54 -206 -108 -110 -54 -202 -101 -205 -104 -3 -3
-44 -23 -93 -45 -48 -21 -92 -44 -98 -51 -6 -7 -41 -25 -79 -40 -38 -15 -67
-30 -65 -35 3 -4 -9 -11 -27 -14 -17 -4 -65 -23 -105 -41 -40 -19 -79 -34 -85
-34 -14 0 77 48 132 70 19 8 40 18 45 23 6 4 60 33 120 63 61 31 223 112 360
181 138 69 261 129 275 134 16 4 19 8 8 8 -35 2 -157 -52 -441 -197 -161 -82
-328 -163 -372 -181 -44 -19 -110 -47 -146 -62 -36 -16 -72 -29 -80 -28 -8 0
-3 5 11 12 14 6 57 25 95 43 39 17 82 35 95 39 22 7 219 103 305 149 135 71
466 226 486 226 17 0 20 3 11 9 -14 8 -12 10 153 87 39 18 84 42 100 53 33 22
45 25 45 13z m30 -27 c-15 -18 1 -20 19 -2 10 10 11 9 6 -3 -3 -9 -34 -30 -68
-48 -34 -18 -86 -46 -115 -63 -29 -17 -58 -29 -64 -27 -11 4 20 24 147 94 33
19 53 34 45 34 -9 0 -5 6 10 15 32 18 35 18 20 0z m60 -49 c0 -2 -21 -16 -46
-31 -36 -21 -48 -24 -57 -15 -7 7 -7 11 -2 8 6 -3 28 5 50 17 40 23 55 29 55
21z m-4074 -34 c-22 -5 -30 3 -21 18 5 8 11 7 22 -2 15 -12 14 -13 -1 -16z
m4101 1 c-9 -2 -15 -9 -12 -14 3 -5 -2 -6 -11 -2 -11 4 -15 3 -10 -5 4 -7 -9
-15 -36 -22 -24 -7 -57 -20 -74 -31 -17 -10 -60 -30 -95 -43 -35 -13 -217
-102 -404 -196 -437 -221 -803 -392 -966 -450 -45 -17 -87 -34 -93 -39 -6 -5
-51 -25 -101 -44 -49 -19 -124 -49 -165 -67 -41 -18 -84 -37 -95 -41 -40 -17
-261 -101 -295 -112 -19 -6 -37 -15 -40 -19 -8 -10 -251 -90 -257 -84 -3 2 35
17 84 32 48 15 120 42 158 59 39 18 81 36 95 40 14 4 39 13 55 21 17 7 84 34
150 59 103 40 193 78 415 177 25 11 85 35 135 53 49 18 118 47 153 64 34 17
64 31 66 31 16 0 1058 517 1066 529 10 17 116 65 150 68 19 2 45 5 57 6 11 1
19 5 17 9 -6 10 28 28 51 27 17 -1 17 -2 2 -6z m-311 -80 c-2 -5 -22 -16 -43
-27 -21 -10 -47 -23 -58 -29 -11 -5 -27 -13 -35 -17 -15 -7 -174 -88 -353
-179 -48 -24 -90 -42 -93 -39 -5 6 28 23 376 199 187 95 217 108 206 92z
m1109 -13 c3 -5 2 -10 -4 -10 -5 0 -13 5 -16 10 -3 6 -2 10 4 10 5 0 13 -4 16
-10z m-5447 -44 c3 -12 -1 -17 -10 -14 -7 3 -15 13 -16 22 -3 12 1 17 10 14 7
-3 15 -13 16 -22z m6572 7 c0 -13 -32 -56 -82 -114 -27 -29 -48 -49 -48 -44 0
15 34 65 74 110 20 22 36 43 36 48 0 4 5 7 10 7 6 0 10 -3 10 -7z m-6015 -29
c0 -10 -7 -20 -16 -22 -21 -4 -34 28 -17 40 19 11 33 4 33 -18z m4800 -144 c3
-5 -1 -10 -10 -10 -9 0 -36 -12 -61 -26 -40 -23 -45 -24 -60 -10 -8 9 -12 16
-7 16 5 0 13 -4 19 -10 7 -7 25 0 54 19 51 33 56 35 65 21z m-1650 -100 c-27
-12 -43 -12 -25 0 8 5 22 9 30 9 10 0 8 -3 -5 -9z m-60 -29 c-3 -6 -16 -11
-28 -11 -21 1 -21 1 3 15 27 14 36 13 25 -4z m-1190 -30 c-11 -10 -141 -51
-159 -50 -9 1 148 57 164 59 2 0 0 -4 -5 -9z m1046 -36 c-41 -20 -76 -33 -78
-31 -6 5 123 65 142 65 6 0 -23 -15 -64 -34z m-291 5 c-8 -5 -19 -10 -25 -10
-5 0 -3 5 5 10 8 5 20 10 25 10 6 0 3 -5 -5 -10z m-950 -35 c-14 -8 -29 -14
-35 -14 -5 0 1 6 15 14 14 8 30 14 35 14 6 0 -1 -6 -15 -14z m315 -5 c-22 -10
-44 -18 -50 -18 -5 0 8 8 30 19 22 10 45 18 50 18 6 0 -8 -9 -30 -19z m-265
-9 c-8 -5 -26 -11 -40 -15 -21 -5 -20 -3 5 9 32 15 60 20 35 6z m1000 1 c0 -8
-113 -60 -232 -108 -70 -27 -78 -21 -10 8 92 39 138 60 187 83 60 28 55 27 55
17z m-705 -22 c-22 -10 -47 -19 -55 -19 -8 0 3 9 25 19 22 10 47 19 55 19 8 0
-3 -9 -25 -19z m565 0 c-44 -18 -79 -26 -67 -14 9 9 80 33 97 33 8 0 -5 -9
-30 -19z m-675 0 c-27 -12 -43 -12 -25 0 8 5 22 9 30 9 10 0 8 -3 -5 -9z m875
0 c-8 -5 -19 -10 -25 -10 -5 0 -3 5 5 10 8 5 20 10 25 10 6 0 3 -5 -5 -10z
m-1435 -39 c-27 -10 -54 -16 -60 -13 -5 4 5 9 23 13 18 4 36 9 39 13 4 3 16 6
27 5 12 0 -1 -8 -29 -18z m800 9 c-27 -12 -43 -12 -25 0 8 5 22 9 30 9 10 0 8
-3 -5 -9z m555 -5 c-14 -8 -29 -14 -35 -14 -5 0 1 6 15 14 14 8 30 14 35 14 6
0 -1 -6 -15 -14z m-800 -5 c-8 -5 -22 -9 -30 -9 -10 0 -8 3 5 9 27 12 43 12
25 0z m145 -10 c-3 -5 -12 -10 -18 -10 -7 0 -6 4 3 10 19 12 23 12 15 0z
m-209 -15 c-11 -8 -25 -15 -30 -15 -6 1 0 7 14 15 32 19 40 18 16 0z m652 10
c-2 -3 -25 -9 -49 -14 -24 -5 -53 -11 -64 -15 -11 -3 -2 3 20 14 35 17 107 29
93 15z m-2084 -21 c7 -19 -1 -34 -18 -34 -18 0 -39 27 -31 40 10 16 42 12 49
-6z m1336 12 c0 -2 -7 -7 -16 -10 -8 -3 -12 -2 -9 4 6 10 25 14 25 6z m885 -5
c-6 -5 -23 -12 -40 -16 l-30 -6 30 15 c35 17 53 20 40 7z m2905 -6 c-7 -8 -17
-15 -23 -15 -6 0 -2 7 9 15 25 19 30 19 14 0z m-3741 -10 c-9 -8 -79 -35 -79
-30 0 3 15 11 33 19 32 15 54 20 46 11z m517 -31 c-28 -13 -55 -24 -60 -24
-13 1 85 49 99 49 6 0 -12 -11 -39 -25z m109 16 c-3 -5 -14 -10 -23 -9 -14 0
-13 2 3 9 27 11 27 11 20 0z m695 6 c0 -2 -12 -11 -27 -20 l-28 -17 24 20 c23
21 31 25 31 17z m-753 -52 c-3 -3 -12 -4 -19 -1 -8 3 -5 6 6 6 11 1 17 -2 13
-5z m-57 -14 c-8 -5 -22 -9 -30 -9 -10 0 -8 3 5 9 27 12 43 12 25 0z m4714
-16 c3 -9 -4 -16 -20 -20 -34 -9 -50 8 -29 29 17 18 40 13 49 -9z m-7716 -12
c3 -20 0 -23 -20 -20 -15 2 -24 11 -26 26 -3 20 0 23 20 20 15 -2 24 -11 26
-26z m2922 -2 c-19 -11 -39 -19 -45 -19 -5 0 6 8 25 19 19 11 40 19 45 19 6 0
-6 -8 -25 -19z m-2128 -52 c-7 -7 -12 -8 -12 -2 0 14 12 26 19 19 2 -3 -1 -11
-7 -17z m1948 -33 c-46 -18 -64 -17 -25 0 17 8 37 14 45 14 8 0 -1 -7 -20 -14z
m105 5 c-3 -5 -12 -10 -18 -10 -7 0 -6 4 3 10 19 12 23 12 15 0z m-35 -14 c0
-2 -7 -7 -16 -10 -8 -3 -12 -2 -9 4 6 10 25 14 25 6z m3788 -48 c-2 -6 -10
-14 -16 -16 -7 -2 -10 2 -6 12 7 18 28 22 22 4z m111 -94 c3 -3 0 -9 -7 -16
-8 -8 -15 -8 -27 2 -22 19 -18 32 8 24 12 -3 24 -8 26 -10z m-3086 -31 c-7 -2
-19 -2 -25 0 -7 3 -2 5 12 5 14 0 19 -2 13 -5z m80 -10 c-7 -2 -19 -2 -25 0
-7 3 -2 5 12 5 14 0 19 -2 13 -5z m984 -69 c-3 -3 -12 -4 -19 -1 -8 3 -5 6 6
6 11 1 17 -2 13 -5z m-2597 -78 c0 -2 -7 -7 -16 -10 -8 -3 -12 -2 -9 4 6 10
25 14 25 6z m165 -9 c-11 -8 -47 -23 -80 -35 -104 -35 -279 -102 -305 -116
-24 -13 -307 -103 -415 -132 -94 -25 -330 -73 -410 -83 -142 -17 -211 -22
-195 -12 19 11 55 17 200 35 202 26 670 151 900 240 130 51 303 114 315 115 5
1 1 -5 -10 -12z m-550 -46 c-30 -12 -101 -24 -93 -15 4 4 25 10 45 14 52 10
72 10 48 1z m202 3 c-3 -3 -12 -4 -19 -1 -8 3 -5 6 6 6 11 1 17 -2 13 -5z
m-402 -69 c-38 -13 -81 -24 -95 -24 -14 1 1 7 33 15 32 8 66 18 75 24 9 5 26
9 37 9 11 -1 -11 -12 -50 -24z m2402 -22 c-3 -10 -5 -2 -5 17 0 19 2 27 5 18
2 -10 2 -26 0 -35z m-1502 0 c90 -71 100 -84 35 -43 -69 43 -112 80 -94 80 6
0 33 -17 59 -37z m3435 22 c0 -8 -4 -15 -10 -15 -5 0 -10 7 -10 15 0 8 5 15
10 15 6 0 10 -7 10 -15z m-4133 -11 c-3 -3 -12 -4 -19 -1 -8 3 -5 6 6 6 11 1
17 -2 13 -5z m2050 -41 c-3 -10 -5 -4 -5 12 0 17 2 24 5 18 2 -7 2 -21 0 -30z
m3620 -12 c28 -20 53 -71 53 -108 0 -69 -77 -132 -144 -117 -39 8 -65 30 -82
71 -20 46 -17 80 8 120 37 61 108 75 165 34z m-6024 12 c-7 -2 -19 -2 -25 0
-7 3 -2 5 12 5 14 0 19 -2 13 -5z m-46 -9 c-3 -3 -12 -4 -19 -1 -8 3 -5 6 6 6
11 1 17 -2 13 -5z m180 -10 c-3 -3 -12 -4 -19 -1 -8 3 -5 6 6 6 11 1 17 -2 13
-5z m2410 -41 c-3 -10 -5 -2 -5 17 0 19 2 27 5 18 2 -10 2 -26 0 -35z m-2450
31 c-3 -3 -12 -4 -19 -1 -8 3 -5 6 6 6 11 1 17 -2 13 -5z m2331 -114 c0 -23
-1 -22 -8 5 -4 17 -8 46 -8 65 l0 35 9 -40 c4 -22 8 -51 7 -65z m1029 78 c-3
-8 -6 -5 -6 6 -1 11 2 17 5 13 3 -3 4 -12 1 -19z m-920 -90 c-2 -13 -4 -3 -4
22 0 25 2 35 4 23 2 -13 2 -33 0 -45z m2258 -48 c3 -5 1 -10 -4 -10 -6 0 -11
5 -11 10 0 6 2 10 4 10 3 0 8 -4 11 -10z m-5350 -32 c-53 -9 -157 -10 -172 0
-6 4 39 7 100 7 76 1 99 -2 72 -7z m6256 -64 c30 -9 56 -18 58 -19 2 -2 -12
-36 -29 -75 l-33 -70 -48 6 c-66 9 -112 -2 -143 -33 -33 -33 -34 -72 -2 -102
23 -21 31 -23 93 -17 37 3 118 9 180 12 102 6 115 5 157 -15 79 -39 126 -116
126 -208 0 -88 -18 -131 -80 -194 -64 -64 -138 -94 -235 -93 -58 1 -169 27
-179 42 -2 4 14 40 37 80 35 61 45 72 62 67 90 -29 171 -10 200 45 21 41 4 78
-48 104 -37 18 -43 18 -164 2 -214 -29 -298 1 -343 121 -25 68 -25 108 0 176
53 142 229 219 391 171z m-1973 -81 c-4 -22 -22 -20 -26 1 -2 10 3 16 13 16
10 0 15 -7 13 -17z m72 -33 c0 -5 -5 -10 -11 -10 -5 0 -7 5 -4 10 3 6 8 10 11
10 2 0 4 -4 4 -10z m-2466 -22 c29 -42 21 -58 -28 -58 -35 0 -48 5 -60 22 -14
20 -14 24 1 40 23 25 68 23 87 -4z m1946 -6 c0 -5 -7 -17 -15 -28 -8 -10 -15
-27 -15 -37 0 -25 -20 -11 -20 14 0 17 -3 18 -22 9 -21 -10 -21 -10 -5 3 9 8
17 19 17 26 0 15 20 14 20 -1 0 -7 5 -5 11 5 10 17 29 23 29 9z m-2950 -66 c0
-3 -4 -8 -10 -11 -5 -3 -10 -1 -10 4 0 6 5 11 10 11 6 0 10 -2 10 -4z m1027
-28 c-3 -8 -6 -5 -6 6 -1 11 2 17 5 13 3 -3 4 -12 1 -19z m647 -25 c-6 -2 -9
-16 -7 -31 l4 -27 -13 25 c-12 22 -12 27 1 37 9 6 18 9 21 6 3 -3 0 -8 -6 -10z
m-1877 -64 c81 -28 170 -58 197 -67 26 -9 51 -23 53 -30 6 -14 -45 -142 -56
-142 -4 0 -60 18 -126 40 -65 22 -120 39 -121 37 -6 -6 -64 -136 -64 -144 0
-4 51 -25 113 -47 61 -21 115 -41 119 -45 7 -6 -36 -119 -51 -134 -4 -4 -63
11 -131 33 -68 22 -125 40 -127 40 -2 0 -21 -37 -43 -82 -28 -59 -36 -85 -27
-89 7 -4 70 -26 140 -49 144 -47 136 -35 91 -137 -13 -29 -28 -53 -33 -53 -12
0 -431 139 -447 148 -8 5 18 66 75 182 47 96 131 269 186 383 54 114 100 207
101 207 1 0 69 -23 151 -51z m1215 13 c-19 -6 -44 6 -37 18 4 7 14 6 28 -2 14
-7 17 -13 9 -16z m3613 -194 c138 -301 255 -565 255 -576 0 -5 -12 -14 -27
-20 -42 -16 -123 -42 -132 -42 -14 0 -343 745 -339 768 3 13 109 59 144 61 5
1 50 -86 99 -191z m-663 -80 c163 -512 219 -700 215 -712 -7 -17 -155 -52
-166 -40 -9 10 -7 6 -137 424 -52 168 -97 321 -100 341 l-6 37 63 15 c107 25
102 28 131 -65z m-3150 10 c57 -27 148 -101 148 -122 0 -6 -33 -32 -72 -58
l-71 -47 -28 30 c-54 58 -145 76 -193 38 -57 -45 -27 -93 106 -170 163 -95
220 -174 205 -284 -12 -87 -60 -151 -147 -196 -39 -21 -59 -24 -150 -24 -96 0
-110 2 -163 30 -53 26 -157 123 -157 145 0 9 144 100 158 100 4 0 26 -22 50
-50 48 -56 90 -73 149 -60 45 11 63 32 63 76 0 45 -38 86 -118 131 -190 104
-241 187 -200 327 17 57 92 130 154 150 74 24 195 16 266 -16z m559 -74 c79
-10 77 12 31 -326 -23 -166 -43 -319 -44 -338 l-3 -34 85 -12 c47 -6 89 -9 93
-6 10 5 -2 -149 -12 -160 -5 -6 -104 2 -314 28 -32 4 -59 10 -62 14 -4 7 20
177 84 581 23 141 41 260 41 264 0 3 12 4 28 1 15 -3 48 -8 73 -12z m1040
-470 c132 -237 239 -436 239 -442 0 -8 -20 -12 -57 -12 -32 0 -74 -3 -94 -6
-36 -6 -37 -5 -71 52 l-34 59 -251 3 -250 2 -32 -51 -32 -52 -61 7 c-33 3 -76
6 -94 6 -19 0 -34 5 -34 10 0 6 50 99 111 208 128 226 189 336 284 512 37 69
77 140 88 159 l20 33 15 -28 c8 -16 122 -223 253 -460z m852 448 c159 -70 216
-254 118 -373 -17 -20 -47 -44 -67 -54 l-36 -17 73 -75 c41 -41 109 -109 152
-151 42 -41 77 -79 77 -83 0 -8 -160 -39 -202 -39 -23 0 -51 27 -167 159 -124
142 -140 164 -146 205 -10 62 -4 72 47 80 56 8 106 39 119 72 13 36 -4 87 -39
115 -24 19 -36 21 -120 16 -51 -2 -95 -7 -98 -10 -3 -2 15 -121 40 -263 59
-337 70 -413 63 -420 -7 -8 -166 -28 -172 -22 -8 8 -135 796 -135 840 0 9 32
15 180 33 140 17 255 12 313 -13z"/>
<path d="M3894 8585 c-8 -21 4 -34 26 -30 29 6 40 14 40 31 0 19 -59 19 -66
-1z"/>
<path d="M5427 8553 c-4 -3 -7 -11 -7 -17 0 -6 5 -5 12 2 6 6 9 14 7 17 -3 3
-9 2 -12 -2z"/>
<path d="M3785 8531 c-9 -15 3 -31 23 -31 29 0 -6 -25 -38 -26 -30 -2 -107
-44 -80 -44 43 0 183 75 177 95 -5 14 -74 19 -82 6z"/>
<path d="M5490 8526 c14 -8 29 -12 34 -8 10 6 -20 20 -44 21 -8 0 -4 -6 10
-13z"/>
<path d="M5338 8464 c21 -38 85 -93 126 -107 38 -13 50 -13 112 3 79 20 150
48 142 55 -3 3 -20 -1 -39 -8 -73 -29 -245 0 -321 54 -27 20 -29 20 -20 3z"/>
<path d="M5578 8473 c7 -3 16 -2 19 1 4 3 -2 6 -13 5 -11 0 -14 -3 -6 -6z"/>
<path d="M5678 8453 c7 -3 16 -2 19 1 4 3 -2 6 -13 5 -11 0 -14 -3 -6 -6z"/>
<path d="M3675 8340 c-64 -32 -119 -68 -131 -85 -7 -9 -16 -16 -21 -17 -4 0
-15 -4 -23 -10 -11 -7 -10 -8 5 -3 11 4 55 9 97 10 69 3 82 7 123 36 93 67 55
121 -50 69z"/>
<path d="M7101 8336 c-24 -29 -24 -79 0 -110 20 -25 27 -28 67 -23 52 6 62 17
62 74 0 48 -9 58 -36 38 -28 -21 -44 -18 -44 10 0 28 -29 35 -49 11z"/>
<path d="M5190 8330 c8 -5 20 -10 25 -10 6 0 3 5 -5 10 -8 5 -19 10 -25 10 -5
0 -3 -5 5 -10z"/>
<path d="M5245 8313 c17 -16 148 -109 185 -133 30 -19 32 -21 10 -17 -14 2
-43 12 -65 21 l-40 17 30 -26 c86 -74 116 -88 197 -95 43 -4 81 -9 84 -12 9
-10 -79 -19 -125 -13 -54 8 -142 34 -155 46 -6 5 -16 9 -23 9 -7 0 -31 12 -53
26 -22 15 -43 25 -45 22 -9 -9 74 -83 136 -120 34 -21 76 -38 93 -39 17 -1 58
-2 91 -3 33 0 73 -8 89 -16 41 -21 80 -98 71 -139 -4 -17 -10 -31 -13 -31 -4
0 -15 19 -25 43 -13 30 -20 38 -26 29 -6 -11 -14 -8 -34 12 -45 45 -129 30
-176 -30 -12 -15 -21 -36 -21 -48 0 -11 -4 -16 -8 -11 -4 6 -45 10 -92 10 -47
0 -101 4 -120 8 -24 5 -17 0 24 -18 32 -13 73 -35 90 -48 17 -13 66 -45 109
-72 55 -33 74 -50 65 -56 -9 -6 -5 -8 12 -7 45 3 153 -2 149 -6 -3 -3 -45 -14
-94 -25 -98 -21 -228 -37 -185 -22 14 5 41 10 60 10 19 1 49 9 65 17 17 8 22
12 11 9 -21 -6 -49 12 -40 26 3 5 -5 4 -18 -2 -19 -8 -34 -6 -72 10 -26 12
-62 21 -80 21 -19 0 -42 9 -55 21 -12 11 -28 18 -36 15 -7 -2 -16 0 -19 7 -3
9 -5 9 -5 0 -1 -16 62 -53 104 -60 19 -3 35 -10 35 -14 0 -5 -10 -7 -22 -5
-72 15 -98 16 -98 5 0 -6 -7 -8 -16 -5 -14 5 -15 1 -10 -29 20 -117 13 -105
68 -105 82 0 187 20 292 57 123 43 189 76 307 153 179 117 286 150 504 151
191 2 252 -18 360 -115 l40 -36 -30 6 c-16 4 -59 26 -95 49 -110 71 -193 91
-334 80 -92 -7 -246 -48 -246 -65 0 -10 -31 -40 -150 -145 -36 -31 -76 -67
-90 -79 -46 -42 -108 -78 -127 -74 -13 2 -9 7 17 20 19 10 28 18 20 18 -12 0
-11 3 3 11 9 5 22 7 27 4 6 -4 9 -1 8 5 -2 7 5 17 16 23 31 20 76 64 70 70 -3
3 -26 -10 -52 -29 -37 -29 -201 -114 -219 -114 -2 0 -1 4 2 10 9 15 -28 -1
-40 -17 -7 -10 -39 -14 -102 -16 -50 -1 -89 -5 -87 -8 2 -4 -24 -7 -57 -7 -34
0 -64 -4 -68 -10 -3 -5 -3 -120 1 -253 20 -655 26 -791 37 -802 8 -8 11 -4 11
16 0 15 5 27 10 27 6 0 10 -7 10 -15 0 -8 5 -15 10 -15 6 0 11 21 12 48 1 43
2 44 7 12 4 -28 7 -20 12 40 4 50 6 23 4 -78 -2 -142 5 -190 20 -143 5 16 10
18 30 11 21 -8 25 -5 37 32 15 48 38 63 38 24 0 -13 -4 -36 -10 -50 -7 -19 -6
-26 3 -26 19 0 58 30 52 41 -3 5 1 6 9 3 9 -3 16 -1 16 5 0 6 7 11 17 11 14 0
14 -3 -3 -22 -17 -21 -16 -21 9 1 15 14 27 30 27 37 0 6 7 17 15 24 8 7 33 46
56 86 44 80 57 95 33 39 -7 -19 -14 -37 -14 -40 0 -9 113 123 200 235 16 20
15 14 -6 -35 -14 -33 -33 -66 -42 -72 -8 -7 -13 -13 -9 -13 10 0 -27 -91 -75
-185 -103 -205 -136 -351 -66 -288 14 12 19 13 13 3 -5 -8 22 17 59 55 37 39
58 56 47 39 -11 -17 -36 -61 -54 -97 -30 -57 -33 -67 -19 -72 9 -3 18 -1 20 4
2 6 7 11 12 11 5 0 5 -15 0 -32 -9 -30 -8 -31 5 -14 8 11 15 16 15 11 0 -4 20
13 45 40 58 61 67 54 12 -10 -22 -28 -32 -43 -22 -33 30 24 127 89 131 86 6
-7 -104 -116 -111 -110 -5 4 -5 2 -1 -5 8 -15 53 2 91 35 14 12 25 19 25 16 0
-3 12 4 26 15 15 12 31 21 35 21 5 0 22 12 38 26 28 24 41 31 41 19 0 -3 -2
-5 -5 -5 -3 0 -26 -18 -51 -42 -24 -23 -63 -53 -86 -67 -23 -13 -37 -26 -30
-29 10 -3 10 -7 0 -19 -10 -13 -7 -13 26 1 20 8 49 24 64 34 33 23 258 132
272 132 5 0 10 5 10 10 0 6 5 10 11 10 7 0 18 8 25 18 11 14 13 15 14 1 0 -14
-82 -74 -102 -74 -5 0 -12 -5 -16 -10 -4 -6 -31 -28 -61 -50 -30 -21 -48 -41
-42 -43 15 -5 -15 -33 -100 -99 -51 -39 -55 -45 -50 -75 l5 -33 7 30 c8 28 8
28 6 -7 -2 -29 0 -35 10 -27 7 6 17 8 22 4 6 -3 30 4 53 15 65 32 108 50 108
44 0 -6 -172 -87 -187 -87 -6 0 -9 -6 -6 -14 3 -7 9 -13 14 -13 4 0 6 -6 3
-14 -9 -25 36 -25 107 -1 38 13 67 20 64 14 -4 -5 -10 -9 -16 -9 -20 0 -129
-56 -134 -68 -3 -10 0 -12 10 -8 9 3 15 0 15 -10 0 -8 -4 -12 -10 -9 -5 3 -10
-4 -10 -15 0 -16 4 -20 16 -16 10 4 51 9 92 13 56 5 73 3 68 -5 -4 -7 -17 -12
-29 -12 -34 0 -97 -20 -97 -30 0 -6 63 -10 153 -10 169 0 309 -9 302 -20 -2
-3 -30 -8 -62 -9 -109 -4 -66 -11 78 -12 79 -1 171 -5 204 -9 72 -8 51 -12
-65 -10 -115 2 -99 -7 25 -14 192 -10 401 -26 479 -36 44 -5 98 -11 120 -11
65 -2 23 -9 -149 -23 -88 -8 -178 -19 -200 -24 -69 -17 -158 -25 -151 -13 9
14 -37 25 -71 16 -21 -5 -24 -8 -12 -15 9 -6 -22 -9 -81 -8 -52 1 -124 -2
-160 -6 -66 -9 -91 -16 -52 -16 11 0 24 -4 27 -10 3 -5 1 -10 -4 -10 -6 0 -11
-4 -11 -9 0 -5 19 -7 43 -5 40 4 40 3 12 -7 -28 -9 -185 -7 -365 7 -70 5 -92
-4 -104 -43 -7 -22 1 -27 51 -38 50 -10 229 -58 233 -63 8 -8 -88 8 -163 28
-39 10 -74 16 -77 13 -3 -3 1 -8 8 -10 6 -3 12 -9 12 -14 0 -5 -12 -4 -27 2
-14 5 -33 7 -40 5 -8 -3 -11 -1 -8 4 3 6 2 10 -2 10 -13 0 -42 -70 -36 -86 2
-7 42 -25 86 -39 84 -27 136 -52 87 -41 -14 3 -60 17 -102 30 l-77 24 -10 -30
c-14 -41 -14 -58 2 -58 7 0 31 -9 52 -21 36 -19 37 -20 10 -14 -74 16 -85 17
-85 7 0 -17 120 -118 217 -184 48 -33 90 -62 93 -65 3 -3 -35 15 -85 40 -130
65 -152 66 -59 5 107 -71 237 -172 164 -126 -140 86 -193 116 -365 209 l-69
37 -18 -29 c-10 -16 -25 -32 -33 -35 -25 -10 -17 -28 36 -85 87 -93 95 -118
11 -34 -66 67 -82 78 -92 66 -17 -18 24 -103 92 -189 28 -35 48 -65 45 -68 -5
-6 -98 118 -120 161 -17 34 -54 71 -63 62 -7 -7 110 -213 136 -237 27 -27 72
-81 61 -75 -9 5 -5 -5 7 -23 28 -39 53 -56 30 -19 -26 39 -22 43 8 8 14 -17
33 -31 42 -31 20 1 134 64 127 71 -2 3 4 5 15 6 18 2 155 80 320 182 41 26
138 85 215 131 158 95 506 326 635 421 47 34 112 82 145 107 89 65 292 233
429 353 264 233 499 508 595 696 35 69 25 137 -43 285 -18 40 -41 93 -51 117
-11 24 -21 38 -23 32 -2 -6 -7 -9 -12 -6 -4 3 -6 -4 -3 -15 3 -11 0 -20 -6
-20 -14 0 -43 65 -77 170 -33 104 -41 110 -36 32 2 -37 2 -65 -1 -62 -3 3 -15
41 -27 84 -11 43 -28 91 -36 105 l-15 26 6 -25 c3 -14 9 -55 12 -92 7 -81 -11
-94 -20 -15 -4 28 -17 86 -31 127 l-24 75 4 -80 4 -80 -20 80 c-10 44 -26 98
-34 120 l-14 40 5 -75 5 -75 -26 50 c-14 28 -26 55 -26 60 0 6 -7 18 -14 27
-11 15 -12 7 -8 -55 2 -39 0 -88 -6 -107 -9 -31 -10 -25 -11 50 -2 95 -30 192
-77 264 -32 47 -203 266 -209 266 -10 0 63 -112 130 -201 84 -112 102 -156 97
-236 -2 -27 -22 -31 -23 -5 0 9 -9 42 -19 72 l-19 55 5 -75 c4 -76 -9 -130
-20 -79 -42 190 -81 324 -69 233 4 -33 2 -41 -11 -41 -12 0 -16 10 -16 34 0
19 -7 48 -16 65 l-16 31 -16 -34 c-32 -67 -37 -61 -57 66 -9 55 -12 58 -54 49
-88 -17 -161 15 -277 120 -30 27 -54 45 -54 39 0 -5 11 -20 25 -33 14 -13 25
-28 25 -34 0 -6 -24 13 -53 42 -30 30 -68 56 -87 62 -36 10 -32 4 17 -26 10
-7 15 -14 12 -18 -3 -3 -21 5 -40 19 -47 33 -132 85 -142 85 -5 0 -5 -5 -2
-11 4 -6 -16 1 -45 16 -29 14 -50 29 -47 32 3 3 22 -5 42 -17 20 -12 39 -20
42 -17 3 3 -18 18 -47 32 -29 15 -49 22 -45 16 10 -17 2 -14 -81 29 -43 22
-82 40 -87 40 -5 0 19 -23 53 -51 66 -56 74 -77 13 -37 -21 14 -54 32 -73 41
-19 9 -31 17 -26 17 5 0 3 7 -4 15 -7 8 -16 12 -21 9 -5 -3 -12 2 -15 10 -5
12 -11 13 -24 6 -10 -6 -26 -7 -34 -4 -24 9 -19 -4 12 -32 l27 -25 -30 14
c-81 39 -114 50 -165 54 -30 2 -57 8 -61 14 -4 7 -9 7 -13 1 -5 -9 -75 -6 -85
3 -2 3 11 6 30 6 28 1 25 3 -16 9 -54 8 -119 -2 -169 -26 -29 -14 -30 -14 -11
1 62 51 206 105 279 105 l51 0 -58 24 c-73 30 -79 36 -129 111 -56 86 -77 97
-181 91 -67 -4 -96 -11 -148 -35 -35 -17 -81 -36 -103 -42 -29 -8 -36 -13 -25
-20 20 -13 -207 -2 -250 12 -20 7 -74 38 -121 70 -55 38 -99 61 -125 65 -24 3
-36 2 -30 -3z m460 -223 c-16 -4 -41 -8 -55 -8 -22 0 -22 1 5 8 17 4 41 8 55
8 22 0 22 -1 -5 -8z m220 0 c51 -10 183 -27 264 -35 24 -2 48 -8 52 -12 5 -5
-8 -8 -29 -6 -28 2 -32 1 -17 -6 31 -13 -263 -13 -385 1 l-105 11 60 29 c64
30 82 32 160 18z m308 -137 c3 -5 -9 -9 -26 -10 -26 -1 -28 0 -12 7 26 11 33
12 38 3z m377 -53 c0 -5 -2 -10 -4 -10 -3 0 -8 5 -11 10 -3 6 -1 10 4 10 6 0
11 -4 11 -10z m-165 -140 c29 -10 93 -45 142 -78 48 -32 108 -69 131 -81 24
-12 41 -25 38 -28 -8 -9 -98 34 -176 83 -96 60 -114 65 -220 61 -145 -5 -224
-49 -275 -151 -29 -57 -34 -41 -6 20 22 49 88 104 154 128 27 10 46 20 44 22
-2 3 -29 -5 -60 -16 -56 -21 -162 -105 -152 -120 3 -5 1 -11 -5 -15 -5 -3 -10
-25 -11 -48 0 -23 -4 -60 -8 -82 l-8 -40 -18 40 c-30 68 -6 164 60 243 28 33
99 72 155 83 50 11 153 0 215 -21z m584 -30 c61 -28 116 -74 153 -129 32 -47
51 -66 91 -95 20 -14 20 -15 2 -9 -11 3 -32 15 -47 25 -14 10 -31 18 -37 18
-6 0 -27 15 -48 32 -27 23 -32 26 -18 8 11 -13 29 -33 40 -43 14 -12 15 -17 5
-14 -8 2 -42 39 -75 83 -69 89 -120 123 -164 108 -36 -13 -33 -34 11 -64 21
-14 45 -36 55 -50 l16 -25 -24 21 c-37 33 -58 41 -139 53 -106 17 -120 20
-120 30 0 5 19 12 41 16 23 4 65 18 93 31 62 29 107 30 165 4z m-514 -106
c184 -80 210 -86 370 -89 160 -3 178 -8 288 -80 36 -23 97 -80 77 -72 -8 3
-67 26 -130 51 -63 25 -111 45 -106 46 5 0 3 7 -4 15 -16 19 -40 19 -65 1 -17
-12 -17 -16 -6 -30 13 -15 10 -16 -25 -11 -183 27 -297 52 -302 66 -2 5 -10 9
-17 9 -7 0 -26 7 -41 15 -36 19 -55 19 -48 1 6 -16 -36 -30 -50 -16 -15 15
-26 12 -26 -7 0 -14 -3 -14 -21 3 -22 19 -22 19 -15 -9 17 -70 18 -115 4 -136
-13 -19 -14 -16 -10 33 2 30 0 62 -6 72 -8 15 -10 9 -8 -26 2 -25 -1 -51 -7
-57 -5 -7 -7 -22 -4 -32 3 -12 -3 -27 -16 -38 -19 -18 -20 -18 -8 4 14 27 14
36 0 27 -8 -4 -9 4 -5 27 5 30 5 31 -4 10 -6 -13 -9 -29 -7 -35 2 -6 -6 -19
-17 -30 -43 -38 -88 -49 -232 -56 -156 -8 -227 -26 -276 -72 -15 -14 -30 -22
-33 -17 -10 15 95 89 148 104 29 8 84 19 122 25 107 16 105 15 105 68 0 93 75
198 174 243 58 26 129 24 201 -7z m-1170 -64 c-3 -5 -22 -10 -41 -10 -21 0
-33 4 -29 10 3 6 22 10 41 10 21 0 33 -4 29 -10z m1870 -50 c3 -6 -1 -7 -9 -4
-18 7 -21 14 -7 14 6 0 13 -4 16 -10z m-580 -44 c80 -33 86 -38 72 -54 -10
-13 -8 -15 18 -9 17 3 37 2 45 -4 11 -6 4 -9 -25 -10 l-40 -2 35 -7 c29 -6 24
-8 -32 -9 -62 -1 -138 -24 -138 -42 0 -4 -8 -10 -17 -13 -10 -3 -2 8 17 24 36
31 35 39 -2 18 -41 -24 -70 -53 -95 -95 -14 -24 -32 -43 -41 -43 -10 0 -30 -9
-46 -19 -17 -11 -33 -18 -37 -16 -4 3 -29 -2 -55 -10 -53 -16 -185 -20 -149
-5 l20 9 -20 2 c-11 1 9 5 46 9 77 7 177 52 229 102 36 35 90 125 90 150 0 7
7 23 15 35 16 23 28 22 110 -11z m-208 -63 c-3 -10 -5 -2 -5 17 0 19 2 27 5
18 2 -10 2 -26 0 -35z m-888 21 c-9 -8 -47 -22 -85 -30 -84 -17 -97 -17 -89
-1 4 6 0 4 -9 -7 -10 -12 -21 -16 -33 -11 -17 7 -17 8 2 16 15 7 11 8 -17 5
-21 -3 -40 -1 -43 3 -5 10 161 25 175 16 6 -3 10 -1 10 6 0 7 10 9 25 7 14 -3
28 -1 31 3 3 5 15 9 27 9 19 0 20 -1 6 -16z m79 -10 c19 -4 31 -12 31 -23 0
-9 3 -29 6 -46 l7 -30 -20 32 c-30 45 -55 50 -104 18 -46 -30 -58 -27 -34 10
25 39 59 50 114 39z m782 -84 c-21 -30 -40 -39 -40 -19 0 5 4 8 8 5 4 -3 17
11 27 31 11 19 21 30 23 24 2 -6 -6 -24 -18 -41z m-1130 36 c0 -2 -7 -7 -16
-10 -8 -3 -12 -2 -9 4 6 10 25 14 25 6z m1045 -76 c5 -8 12 -7 23 2 12 10 14
10 8 1 -4 -7 -17 -18 -28 -24 -18 -10 -20 -9 -15 5 8 21 6 21 -53 -14 -50 -30
-52 -30 -151 -23 -55 3 -101 9 -104 12 -2 4 31 8 73 9 99 3 159 12 197 28 37
16 42 17 50 4z m670 -92 c-27 -5 -78 -15 -111 -22 -51 -10 -65 -10 -80 1 -26
19 -42 16 -69 -12 -16 -15 -25 -19 -25 -10 0 32 29 44 111 44 45 0 84 3 87 6
3 3 35 4 71 4 l66 -1 -50 -10z m-1157 -55 c-19 -23 -38 -69 -38 -91 0 -15 2
-15 10 -2 8 12 10 10 10 -9 0 -20 -2 -21 -15 -11 -8 7 -15 19 -15 28 0 24 40
102 52 102 6 0 5 -8 -4 -17z m120 -48 c59 -24 65 -24 163 -14 56 5 103 8 105
6 10 -10 -215 -36 -244 -28 -41 12 -132 73 -125 84 3 4 13 1 22 -7 10 -9 45
-27 79 -41z m642 -44 c0 -5 -13 -14 -30 -21 -16 -7 -30 -19 -30 -26 0 -8 -10
-14 -25 -14 -14 0 -25 -5 -25 -11 0 -5 -4 -7 -10 -4 -5 3 -10 1 -10 -5 0 -6
-4 -8 -10 -5 -5 3 -10 1 -10 -4 0 -6 -12 -11 -27 -12 -16 0 -22 -3 -14 -6 14
-6 -113 -65 -139 -65 -8 0 -36 -6 -62 -15 -32 -10 -62 -12 -95 -7 -26 4 -42 9
-35 11 6 3 12 9 12 14 0 6 -4 7 -10 4 -5 -3 -10 2 -10 11 0 17 -1 16 -13 -1
-9 -11 -19 -15 -27 -10 -9 5 -11 4 -6 -3 4 -7 1 -12 -8 -12 -8 0 -20 -8 -25
-17 -17 -29 -12 -5 5 30 29 57 64 97 104 117 42 21 69 27 33 7 -12 -7 -23 -16
-24 -22 -1 -5 -10 -21 -20 -34 -17 -21 -18 -27 -6 -45 20 -30 61 -37 123 -20
64 16 67 18 197 96 82 50 127 68 190 77 4 1 7 -3 7 -8z m45 -11 c13 -6 15 -9
5 -9 -8 0 -22 4 -30 9 -18 12 -2 12 25 0z m191 -19 c-3 -5 34 -12 82 -15 82
-7 196 -26 189 -32 -3 -4 -252 23 -289 31 -15 4 -29 1 -34 -6 -5 -8 -1 -11 13
-7 11 3 31 -1 44 -9 19 -11 20 -13 4 -9 -11 3 -74 6 -140 8 l-120 1 -100 -49
c-55 -27 -120 -61 -145 -76 -55 -32 -90 -43 -90 -29 0 6 6 11 14 11 16 0 244
116 266 135 8 7 27 17 42 20 16 4 25 11 22 16 -6 11 21 10 96 0 40 -6 62 -5
80 5 28 15 74 19 66 5z m-761 -9 c-6 -4 -24 -18 -40 -32 -29 -24 -29 -23 2 8
18 17 36 32 40 32 4 0 3 -3 -2 -8z m-87 -92 c-7 -11 -16 -20 -20 -20 -4 0 -5
-7 -2 -15 9 -21 -15 -47 -37 -40 -9 3 -21 0 -25 -6 -5 -9 -2 -10 9 -6 23 9 21
-5 -3 -31 -16 -16 -32 -22 -67 -22 l-45 0 58 39 c33 22 77 58 99 80 44 46 51
50 33 21z m52 -64 c0 -2 -9 -6 -20 -9 -11 -3 -20 -1 -20 4 0 5 9 9 20 9 11 0
20 -2 20 -4z m1518 -100 c8 -31 20 -41 67 -52 29 -7 29 -8 5 -11 -14 -2 -37
-9 -52 -15 -26 -10 -28 -15 -29 -67 l-1 -56 -14 55 c-8 30 -22 61 -31 68 -9 6
-42 12 -74 12 l-57 0 -7 38 c-3 20 -15 57 -26 82 -11 25 -14 39 -7 32 6 -6 22
-38 34 -70 l21 -57 49 -3 c71 -4 86 11 93 89 l4 64 9 -40 c5 -22 12 -53 16
-69z m-1378 44 c-34 -18 -91 -28 -76 -12 7 7 81 29 101 31 6 0 -6 -8 -25 -19z
m-727 -65 c-3 -9 -8 -14 -10 -11 -3 3 -2 9 2 15 9 16 15 13 8 -4z m1327 -185
c12 -8 10 -10 -9 -10 -14 0 -37 -15 -57 -37 -19 -20 -34 -31 -34 -24 0 23 20
50 48 65 32 18 33 18 52 6z m-905 -50 c3 -5 -1 -10 -9 -10 -9 0 -16 5 -16 10
0 6 4 10 9 10 6 0 13 -4 16 -10z m-98 -182 c-3 -8 -6 -5 -6 6 -1 11 2 17 5 13
3 -3 4 -12 1 -19z m598 -168 c-3 -5 -12 -10 -18 -10 -7 0 -6 4 3 10 19 12 23
12 15 0z m-454 -53 c-13 -12 -20 -15 -16 -7 14 26 28 41 33 35 3 -3 -5 -16
-17 -28z m1185 25 c-3 -5 -23 -17 -45 -28 -23 -10 -41 -22 -41 -26 0 -5 -4 -8
-10 -8 -27 0 -4 24 43 45 61 28 60 27 53 17z m-1276 -35 c0 -2 -11 -14 -25
-27 -14 -13 -25 -21 -25 -17 0 3 10 15 22 27 21 19 28 24 28 17z m900 -122 c0
-2 -13 -11 -30 -20 -38 -19 -40 -11 -2 9 31 17 32 18 32 11z m-394 -82 c-18
-17 -18 -17 -13 -1 3 10 2 20 -4 23 -5 4 -6 11 -3 17 4 6 12 4 22 -6 15 -15
15 -17 -2 -33z m324 43 c0 -2 -7 -7 -16 -10 -8 -3 -12 -2 -9 4 6 10 25 14 25
6z m-405 -86 c-3 -5 -14 -10 -23 -10 -15 0 -15 2 -2 10 20 13 33 13 25 0z
m-10 -110 c-22 -10 -44 -18 -50 -18 -5 0 8 8 30 19 22 10 45 18 50 18 6 0 -8
-9 -30 -19z m40 -59 c3 -5 1 -12 -5 -16 -5 -3 -10 1 -10 9 0 18 6 21 15 7z
m-45 -91 c0 -5 -4 -10 -10 -10 -5 0 -10 5 -10 10 0 6 5 10 10 10 6 0 10 -4 10
-10z m815 -580 c-3 -5 -11 -10 -16 -10 -6 0 -7 5 -4 10 3 6 11 10 16 10 6 0 7
-4 4 -10z m-250 -29 c34 -16 105 -74 105 -86 0 -2 -10 -1 -22 2 -13 3 -33 5
-45 5 -15 0 -20 5 -16 16 4 10 2 13 -5 8 -6 -4 -20 2 -32 14 -31 31 -82 26
-125 -11 -25 -22 -35 -39 -35 -61 0 -16 -4 -27 -9 -23 -5 3 -13 0 -16 -5 -5
-7 -12 -5 -20 6 -12 17 -14 16 -33 -15 -18 -30 -21 -31 -27 -12 -8 25 7 53 39
75 14 9 32 30 41 46 31 59 122 78 200 41z m-548 3 c-3 -3 -12 -4 -19 -1 -8 3
-5 6 6 6 11 1 17 -2 13 -5z m-67 -104 c8 -5 11 -10 5 -10 -5 0 -17 5 -25 10
-8 5 -10 10 -5 10 6 0 17 -5 25 -10z m-410 -154 c14 -18 14 -18 -7 -6 -12 8
-19 18 -16 23 3 4 6 7 7 5 1 -2 8 -12 16 -22z"/>
<path d="M6305 7750 c-16 -7 -13 -9 15 -9 19 -1 53 -3 75 -6 30 -4 34 -3 15 3
-46 16 -85 20 -105 12z"/>
<path d="M6182 7475 c-30 -62 -27 -71 4 -12 14 27 24 51 22 53 -3 2 -14 -17
-26 -41z"/>
<path d="M6668 7423 c6 -2 18 -2 25 0 6 3 1 5 -13 5 -14 0 -19 -2 -12 -5z"/>
<path d="M6512 7365 c-15 -33 -15 -42 0 -27 11 11 22 52 15 52 -2 0 -9 -11
-15 -25z"/>
<path d="M6623 7383 c9 -2 23 -2 30 0 6 3 -1 5 -18 5 -16 0 -22 -2 -12 -5z"/>
<path d="M6274 6894 c-18 -14 -18 -14 6 -3 31 14 36 19 24 19 -6 0 -19 -7 -30
-16z"/>
<path d="M5930 6869 c0 -5 5 -7 10 -4 6 3 10 8 10 11 0 2 -4 4 -10 4 -5 0 -10
-5 -10 -11z"/>
<path d="M5945 8304 c-22 -8 -45 -22 -51 -32 -11 -16 -7 -16 35 3 25 12 57 27
71 33 39 17 -5 14 -55 -4z"/>
<path d="M6487 8199 c-3 -34 -8 -63 -11 -66 -2 -3 -29 -7 -58 -10 -34 -2 -48
-1 -39 5 18 13 0 22 -27 15 -18 -4 -20 -8 -10 -20 20 -24 64 -43 140 -57 40
-8 100 -24 132 -35 33 -12 65 -21 73 -21 29 0 10 18 -48 45 -33 16 -64 35 -68
42 -8 15 -42 17 -86 7 -29 -6 -28 -5 12 24 54 40 57 46 36 79 -36 56 -40 56
-46 -8z"/>
<path d="M4845 8180 c28 -32 206 -180 217 -180 10 0 10 41 0 56 -4 6 -24 16
-44 23 -20 7 -72 37 -115 68 -43 31 -69 46 -58 33z"/>
<path d="M3935 8178 c-168 -39 -161 -44 20 -13 117 19 130 23 80 23 -33 0 -78
-4 -100 -10z"/>
<path d="M3571 8149 c-13 -10 -19 -19 -14 -19 13 0 49 27 43 33 -3 3 -16 -3
-29 -14z"/>
<path d="M6435 8160 c-3 -5 -2 -10 4 -10 5 0 13 5 16 10 3 6 2 10 -4 10 -5 0
-13 -4 -16 -10z"/>
<path d="M4280 8119 c0 -10 57 -19 119 -19 165 0 283 -90 277 -211 -2 -45 -35
-124 -52 -124 -5 -1 -20 -7 -32 -14 -13 -7 -26 -10 -29 -8 -2 3 6 11 19 18 12
6 27 18 31 26 5 7 11 11 15 9 4 -3 9 3 10 12 1 9 4 34 8 54 8 50 -10 100 -54
143 -60 59 -112 78 -219 79 -51 1 -93 -3 -93 -7 0 -5 21 -7 48 -6 100 5 239
-61 275 -131 12 -24 17 -49 14 -80 -5 -47 -29 -74 -94 -105 -40 -19 -51 -35
-24 -35 12 0 21 5 21 11 0 7 13 8 39 4 25 -4 50 -1 72 9 51 22 198 143 220
181 11 18 34 40 52 49 28 14 29 16 9 16 -12 0 -48 9 -80 21 -120 44 -229 80
-272 90 -53 13 -280 27 -280 18z m457 -281 c-3 -7 -5 -2 -5 12 0 14 2 19 5 13
2 -7 2 -19 0 -25z"/>
<path d="M3550 8082 c-14 -9 -26 -20 -28 -24 -2 -5 -10 -8 -17 -8 -8 0 -18 -6
-22 -13 -4 -7 -29 -23 -55 -36 -67 -34 -83 -55 -113 -148 -26 -82 -26 -83 -78
-107 -29 -14 -78 -34 -109 -46 -64 -24 -117 -76 -150 -147 -18 -40 -35 -52
-52 -36 -3 4 -12 8 -19 9 -69 13 -72 11 -14 -9 147 -51 194 -154 191 -417 -1
-68 -7 -125 -18 -162 -17 -56 -36 -85 -36 -54 0 9 -4 16 -10 16 -5 0 -10 7
-10 15 0 8 -3 15 -8 15 -10 0 -25 -25 -89 -150 -30 -60 -65 -120 -78 -134 -13
-14 -31 -36 -40 -48 -14 -19 -16 -19 -11 -4 7 19 6 19 -14 1 -11 -10 -20 -23
-20 -29 0 -6 5 -4 11 4 9 13 10 13 6 0 -2 -8 -8 -15 -13 -15 -5 0 -15 -4 -21
-8 -9 -5 -13 -2 -13 9 0 10 18 35 40 55 22 21 40 40 40 43 0 2 -23 -11 -52
-30 -28 -19 -58 -32 -65 -30 -8 3 -11 1 -8 -4 3 -5 -1 -17 -10 -27 -9 -10 -25
-29 -36 -43 -23 -29 -15 -8 13 33 32 45 4 30 -32 -17 -35 -48 -69 -72 -50 -36
5 10 15 22 20 25 6 3 10 11 10 17 0 7 -5 7 -14 -1 -10 -9 -15 -8 -20 4 -3 9 0
15 9 15 7 0 17 4 20 10 4 6 -1 7 -12 3 -31 -11 -33 -14 -24 -32 6 -11 6 -22
-1 -32 -8 -11 -9 -11 -4 3 3 10 1 20 -4 23 -5 3 -23 -19 -41 -50 -17 -30 -35
-55 -41 -55 -14 0 80 174 118 218 51 60 74 111 74 167 0 59 -12 75 -56 75 -64
0 -95 -13 -155 -66 -33 -30 -62 -54 -65 -54 -3 0 -3 9 1 20 3 11 2 26 -2 35
-7 13 -14 10 -43 -15 -23 -20 -27 -27 -12 -20 19 9 22 8 22 -10 0 -17 -4 -19
-24 -14 -30 7 -40 -8 -56 -92 l-12 -62 -40 -5 c-60 -8 -105 -51 -163 -156 -28
-51 -69 -114 -91 -139 -68 -79 -126 -161 -174 -243 -26 -44 -48 -77 -51 -75
-2 2 -4 -14 -5 -37 0 -23 -8 -58 -16 -77 -9 -19 -21 -51 -27 -70 -7 -19 -32
-66 -57 -103 -39 -58 -45 -74 -42 -105 3 -20 -1 -54 -9 -76 -18 -53 -16 -92 6
-140 17 -37 20 -73 24 -336 3 -162 9 -306 15 -320 5 -14 23 -40 39 -57 37 -40
63 -119 63 -193 0 -62 26 -215 41 -240 6 -12 8 -12 9 -1 0 11 3 11 17 0 15
-12 16 -12 9 6 -23 55 -54 166 -60 210 -6 44 -2 38 30 -50 51 -138 73 -222 73
-277 1 -26 6 -50 11 -53 6 -3 10 -26 10 -49 0 -49 28 -146 42 -146 6 0 28 13
51 29 78 54 272 177 290 184 11 4 21 16 24 26 3 11 11 17 18 15 7 -3 51 19 97
49 45 29 104 66 131 81 26 16 51 35 56 44 7 13 9 13 14 -4 3 -10 8 -45 12 -76
l6 -56 -68 -40 c-37 -22 -171 -92 -298 -157 -126 -64 -251 -131 -277 -147 -52
-34 -53 -29 3 -116 35 -55 45 -41 35 51 l-6 62 16 -40 c9 -22 24 -75 35 -118
18 -73 59 -170 77 -181 12 -7 29 7 46 38 l14 29 15 -50 c30 -100 79 -172 102
-150 6 7 14 18 16 26 3 8 24 -12 52 -50 76 -102 154 -210 192 -267 21 -31 41
-50 47 -46 7 4 8 3 4 -5 -10 -15 63 -105 127 -157 96 -77 110 -85 142 -78 16
4 131 56 255 116 274 134 329 160 544 254 176 77 206 95 206 124 0 25 -49 70
-76 70 -14 0 -24 6 -24 14 0 20 -55 40 -87 32 -16 -4 -36 -8 -45 -9 -9 -1 -14
-5 -12 -9 3 -4 0 -8 -7 -8 -7 0 -21 -8 -32 -17 -19 -17 -20 -17 -9 3 16 31 78
83 108 90 41 11 124 -2 152 -23 29 -20 61 -78 71 -124 l6 -28 140 65 c77 36
160 75 185 86 314 144 740 355 740 367 0 5 -7 12 -16 15 -8 3 -13 10 -10 15 3
5 -1 14 -9 21 -16 14 -20 40 -6 40 5 0 8 -7 7 -16 0 -9 5 -19 12 -21 8 -3 10
1 5 14 -7 17 -6 17 11 0 32 -31 41 -15 42 71 1 45 -2 82 -5 82 -4 0 -7 21 -8
48 -7 207 -17 333 -26 339 -6 4 -8 0 -4 -10 3 -10 2 -17 -3 -17 -6 0 -9 12 -8
28 4 55 -2 82 -17 82 -8 0 -15 6 -15 14 0 8 -4 18 -10 21 -6 4 -7 -1 -3 -11 5
-13 3 -15 -7 -9 -7 5 -11 4 -8 -1 3 -5 -3 -31 -13 -59 l-18 -50 6 43 c12 89 8
110 -21 110 -22 0 -28 -10 -52 -74 -31 -85 -43 -93 -20 -13 23 75 20 94 -13
118 -36 26 -35 26 -62 -1 l-22 -23 6 24 6 23 -25 -23 c-29 -28 -31 -17 -3 22
17 25 18 29 4 29 -8 0 -18 -7 -21 -15 -4 -8 -10 -15 -16 -15 -5 0 -6 5 -3 10
14 23 -8 7 -60 -45 -30 -30 -58 -54 -63 -52 -9 3 -23 -9 -130 -112 -95 -91
-171 -155 -157 -131 8 13 101 124 133 158 6 7 12 19 12 27 0 7 4 15 8 17 14 5
133 187 144 219 5 16 14 29 20 29 5 0 -6 16 -25 36 -34 36 -34 36 -61 19 -14
-9 -26 -21 -26 -26 0 -5 -5 -9 -12 -9 -6 0 -3 9 7 20 15 17 16 22 4 37 -13 16
-12 17 3 5 12 -10 18 -10 24 -1 4 7 3 9 -4 5 -6 -3 -13 -2 -17 3 -3 7 -15 7
-30 1 -19 -7 -23 -6 -18 5 3 8 10 12 15 9 6 -4 9 -3 6 2 -20 45 -33 64 -45 68
-8 3 -11 1 -8 -4 3 -6 2 -10 -4 -10 -5 0 -11 4 -13 9 -1 5 -47 -13 -100 -40
-54 -26 -98 -45 -98 -41 0 4 45 33 100 65 59 33 100 64 100 73 0 8 -4 13 -9
10 -5 -4 -11 -1 -13 5 -4 11 -145 -43 -242 -92 -44 -23 -62 -18 -19 5 41 22
19 19 -26 -4 -39 -19 -121 -50 -121 -45 0 3 166 113 268 178 23 15 42 34 42
43 0 8 4 12 10 9 6 -3 7 1 4 9 -7 17 -30 21 -38 7 -3 -5 -16 -11 -28 -14 -21
-5 -22 -5 -4 6 58 36 68 51 59 87 -9 32 -13 35 -45 35 -34 0 -66 13 -40 16 7
1 17 3 22 4 6 1 15 3 21 4 5 0 7 6 3 12 -3 6 -2 14 4 18 6 4 9 16 6 28 -5 19
-14 22 -68 25 -33 2 -117 0 -186 -3 -69 -4 -126 -2 -128 2 -2 5 -10 9 -18 9
-7 0 -11 6 -8 14 3 8 2 16 -3 19 -12 7 -149 19 -234 21 -43 0 -75 5 -71 10 3
5 -5 6 -19 1 -30 -9 -79 -8 -189 5 -106 12 -343 30 -432 33 -38 1 -68 5 -68 8
0 4 42 9 93 12 231 13 416 29 462 42 28 7 69 12 93 11 23 -2 42 0 42 4 0 4 63
10 140 13 134 6 187 17 175 38 -4 5 49 9 137 10 79 1 175 4 213 8 l70 6 -105
19 c-156 28 -231 44 -238 51 -7 7 39 2 153 -15 33 -5 90 -12 128 -15 62 -5 67
-4 67 14 0 11 3 26 6 35 4 11 -2 19 -17 25 -13 5 -44 19 -69 30 -48 23 -35 22
45 -3 27 -9 45 -12 40 -8 -9 8 -31 18 -124 53 -48 19 -12 19 50 0 35 -10 77
-22 92 -25 49 -11 27 16 -39 49 -82 41 -254 135 -254 140 0 3 160 -66 245
-106 11 -5 35 -14 53 -19 27 -7 33 -6 29 4 -3 8 0 19 6 25 9 10 5 18 -18 38
-16 14 -42 36 -57 49 -15 13 -33 24 -39 24 -5 0 -7 5 -3 12 5 8 2 9 -9 5 -9
-3 -19 -1 -23 5 -4 7 -3 8 4 4 7 -4 12 -3 12 3 0 5 -16 19 -35 31 -20 13 -35
30 -35 41 0 10 -5 19 -11 19 -6 0 -17 6 -24 13 -8 6 -52 39 -99 71 -47 33 -84
62 -81 64 2 3 37 -15 77 -39 101 -60 302 -157 336 -162 9 -1 23 -6 30 -10 28
-18 9 19 -28 55 -23 21 -38 38 -34 38 5 0 -1 6 -12 14 -17 13 -17 14 -2 12 10
-1 27 -12 38 -24 12 -12 24 -22 28 -22 4 0 22 -14 41 -31 19 -16 41 -28 50
-27 16 3 35 58 20 58 -5 0 -27 24 -49 53 -22 28 -48 60 -57 70 -37 39 2 13 50
-33 70 -66 80 -75 95 -85 12 -6 12 -3 2 15 -17 31 -6 36 14 6 10 -16 22 -23
31 -20 11 5 14 1 9 -12 -5 -15 -4 -16 4 -4 6 8 8 18 6 22 -3 4 2 8 10 8 9 0
16 3 16 6 0 9 -40 65 -83 114 -96 110 -32 73 74 -43 33 -37 50 -49 62 -44 13
5 16 13 11 34 -4 16 -10 33 -14 38 -4 6 -15 35 -25 65 -16 51 -146 315 -165
334 -5 5 -6 15 -3 24 5 11 3 13 -7 7 -8 -5 -11 -3 -8 6 3 8 1 23 -5 34 -6 11
-11 31 -12 44 -1 22 2 21 33 -15 19 -22 55 -68 80 -104 66 -93 232 -261 232
-235 1 18 2 17 15 -5 13 -23 14 -20 10 40 -1 36 -7 82 -13 103 -5 20 -6 37 -2
37 4 0 10 -15 14 -32 4 -18 16 -53 27 -78 12 -25 27 -58 33 -73 11 -24 14 -26
26 -12 9 11 16 12 26 4 14 -11 34 -4 34 12 0 6 -5 7 -12 3 -7 -4 -8 -3 -4 4 4
6 2 29 -3 49 -11 42 -23 149 -16 141 2 -2 12 -33 20 -69 9 -35 21 -81 26 -101
6 -22 16 -38 24 -38 14 0 20 14 15 35 -1 6 -4 61 -5 124 -3 122 8 132 19 17 4
-38 13 -78 21 -89 16 -22 14 -27 15 53 0 20 2 22 10 10 7 -10 10 9 10 65 0 44
3 123 5 175 6 108 25 551 30 682 3 74 1 89 -13 97 -16 9 -16 11 1 23 18 13 43
105 32 116 -2 3 -44 -9 -92 -26 -90 -33 -118 -37 -61 -9 18 9 29 17 23 17 -5
0 -1 7 9 15 41 31 4 13 -44 -21 -28 -20 -47 -41 -43 -46 3 -7 1 -8 -5 -4 -7 4
-12 1 -12 -9 0 -9 -4 -14 -9 -10 -5 3 -26 -6 -47 -20 -20 -14 -42 -25 -48 -25
-6 1 2 8 17 16 16 9 27 18 24 20 -8 8 -61 -20 -75 -38 -7 -10 -18 -18 -24 -18
-6 0 -5 7 3 17 13 15 12 15 -6 5 -43 -24 -95 -41 -100 -31 -8 12 -62 12 -69 0
-4 -5 3 -7 14 -4 14 4 20 0 20 -12 0 -15 6 -17 35 -12 45 7 54 -7 15 -23 -26
-11 -33 -10 -49 4 -20 18 -31 20 -31 6 0 -5 6 -10 14 -10 19 0 26 -23 11 -37
-10 -9 -14 -8 -18 8 -7 26 -32 24 -54 -4 -10 -13 -24 -22 -31 -19 -15 5 -16
23 0 19 6 -1 14 7 16 17 3 15 0 18 -16 14 -12 -3 -31 1 -44 10 -22 15 -22 15
-9 -1 15 -19 12 -31 -4 -19 -6 4 -23 25 -40 47 -31 43 -80 89 -125 118 l-28
18 0 -34 c0 -46 -55 -150 -94 -180 -47 -35 -103 -50 -157 -43 -58 8 -141 35
-141 46 0 16 -67 50 -97 50 -105 0 -134 -149 -59 -306 20 -42 33 -81 29 -87
-3 -5 -1 -7 4 -4 7 4 10 -2 10 -16 -1 -12 2 -35 7 -52 10 -39 7 -36 -51 62
-28 46 -54 80 -58 75 -5 -4 -5 -1 -1 6 5 8 1 21 -8 31 -18 19 -67 167 -59 175
3 3 7 36 9 74 2 37 8 80 13 95 7 17 7 27 1 27 -6 0 -10 -6 -10 -12 0 -9 -3 -8
-10 2 -7 11 -11 9 -19 -13 -6 -15 -13 -27 -16 -27 -4 0 -4 3 -2 8 2 4 -4 15
-14 24 -15 14 -18 15 -23 1 -3 -8 -3 -20 1 -25 3 -7 1 -8 -6 -4 -7 4 -9 17 -6
29 6 22 6 22 -10 2 -9 -11 -23 -43 -31 -72 -27 -92 4 -167 86 -210 65 -35 80
-68 35 -79 -14 -3 -25 -8 -25 -11 0 -3 13 -22 29 -42 64 -82 75 -123 52 -203
-19 -66 -50 -128 -64 -128 -5 0 -5 -5 -1 -12 4 -7 3 -8 -4 -4 -9 5 -8 13 2 29
16 25 41 125 37 146 -1 7 2 10 7 7 11 -6 26 23 17 32 -3 3 -5 0 -5 -6 0 -7 -7
-12 -15 -12 -8 0 -15 -9 -15 -20 0 -11 -4 -20 -10 -20 -5 0 -10 -6 -10 -14 0
-7 -7 -20 -17 -27 -15 -13 -15 -11 -9 24 5 25 4 37 -2 33 -6 -3 -8 2 -5 14 4
16 2 19 -11 14 -11 -4 -16 -1 -16 10 0 9 -7 28 -16 41 -10 15 -17 49 -18 88
-1 55 -6 72 -46 137 -25 41 -48 77 -52 78 -5 2 -8 8 -8 13 0 6 3 8 8 6 4 -3 7
18 7 46 0 29 3 63 7 77 6 19 4 18 -7 -5 -8 -16 -14 -49 -15 -72 0 -24 -4 -43
-10 -43 -5 0 -7 8 -4 18 5 16 5 16 -6 0 -8 -13 -7 -25 5 -49 16 -30 14 -59 -3
-59 -5 0 -14 11 -20 25 -14 30 -37 32 -54 6 -15 -24 -38 -10 -39 23 0 20 -1
20 -8 1 -7 -17 -10 -13 -21 25 -6 25 -18 61 -25 82 -11 31 -10 41 5 76 24 53
128 192 144 192 19 0 44 31 60 76 12 36 12 42 -3 53 -12 9 -13 11 -1 8 8 -2
50 29 95 72 53 51 105 89 154 114 41 21 80 46 87 55 51 67 74 102 67 102 -4 0
-38 -24 -75 -54 -62 -50 -180 -116 -207 -116 -6 0 -23 -7 -36 -16 -24 -15 -25
-15 -25 4 0 15 20 33 71 64 39 24 90 60 113 80 44 40 46 47 6 20z m-380 -452
c-8 -5 -22 -10 -31 -10 -9 0 -33 -13 -54 -30 -21 -16 -40 -30 -43 -30 -12 0
28 46 54 62 31 18 102 26 74 8z m1830 -185 c-7 -8 -17 -15 -22 -15 -11 0 14
29 26 30 5 0 3 -7 -4 -15z m-193 -77 c-3 -7 -5 -2 -5 12 0 14 2 19 5 13 2 -7
2 -19 0 -25z m-627 -50 c32 -98 34 -107 16 -78 -8 14 -15 31 -16 38 0 7 -9 32
-20 54 -22 45 -24 58 -12 58 4 0 18 -33 32 -72z m621 -21 c-10 -9 -11 -8 -5 6
3 10 9 15 12 12 3 -3 0 -11 -7 -18z m-4 -109 c-2 -18 -4 -4 -4 32 0 36 2 50 4
33 2 -18 2 -48 0 -65z m-992 62 c18 -11 36 -27 39 -36 4 -10 -7 -5 -26 11 -63
53 -157 15 -158 -63 0 -18 4 -42 10 -52 8 -15 6 -18 -7 -16 -31 5 -36 62 -11
128 18 48 98 62 153 28z m840 -20 c3 -5 -3 -10 -15 -10 -11 0 -32 -11 -46 -25
-29 -29 -34 -30 -34 -11 0 33 79 71 95 46z m-1175 -25 c0 -8 -4 -15 -9 -15
-13 0 -22 16 -14 24 11 11 23 6 23 -9z m760 -30 c0 -5 -5 -3 -10 5 -5 8 -10
20 -10 25 0 6 5 3 10 -5 5 -8 10 -19 10 -25z m-1001 4 c11 -18 11 -23 -1 -30
-19 -13 -28 -11 -34 6 -7 17 1 45 13 45 5 0 14 -10 22 -21z m38 -31 c-3 -7 -5
-2 -5 12 0 14 2 19 5 13 2 -7 2 -19 0 -25z m997 -52 c9 -27 14 -51 12 -53 -3
-3 -46 103 -46 115 0 17 19 -19 34 -62z m-554 -38 c0 -6 -6 -5 -15 2 -8 7 -15
14 -15 16 0 2 7 1 15 -2 8 -4 15 -11 15 -16z m1274 -147 c-4 -17 -9 -30 -11
-27 -3 2 -2 19 2 36 9 41 17 33 9 -9z m-1683 -26 c3 -124 -11 -173 -68 -233
-25 -26 -33 -32 -18 -13 14 19 24 40 21 48 -3 8 -2 12 3 9 4 -3 9 19 10 49 2
62 -4 65 -69 42 -98 -36 -153 -97 -166 -186 -5 -34 -16 -54 -41 -79 -19 -18
-37 -31 -41 -28 -3 4 3 13 14 20 38 28 8 24 -39 -5 -26 -16 -47 -26 -47 -22 0
5 -5 0 -11 -9 -14 -25 -25 -22 -24 5 1 36 17 53 65 69 42 13 48 20 87 94 51
95 86 127 170 155 86 28 105 57 79 119 -5 12 2 15 34 15 l40 0 1 -50z m310 -1
c22 -37 33 -94 17 -94 -4 0 -8 7 -8 15 0 27 -17 15 -35 -25 -20 -44 -40 -56
-25 -14 6 14 7 30 4 36 -4 6 -2 8 3 5 6 -4 16 6 22 23 6 18 6 28 1 25 -6 -4
-10 -14 -10 -23 0 -10 -3 -13 -10 -6 -8 8 6 94 15 94 2 0 13 -16 26 -36z
m1259 -29 c0 -8 -2 -15 -4 -15 -2 0 -6 7 -10 15 -3 8 -1 15 4 15 6 0 10 -7 10
-15z m-2370 -88 c0 -2 -15 -16 -32 -33 l-33 -29 29 33 c28 30 36 37 36 29z
m-126 -162 c-23 -55 -17 -58 41 -25 30 17 55 29 55 27 0 -6 -90 -65 -176 -116
-144 -84 -271 -228 -360 -406 -48 -97 -70 -128 -54 -78 15 51 67 147 120 222
66 93 211 239 273 276 38 22 54 40 74 81 28 59 51 75 27 19z m312 -103 c-11
-10 -15 4 -8 28 l7 25 3 -23 c2 -13 1 -26 -2 -30z m1894 -18 c0 -8 -4 -14 -10
-14 -5 0 -10 9 -10 21 0 11 5 17 10 14 6 -3 10 -13 10 -21z m-1919 -17 c-10
-9 -11 -8 -5 6 3 10 9 15 12 12 3 -3 0 -11 -7 -18z m243 4 c-10 -10 -21 -16
-24 -14 -3 3 4 11 14 19 28 20 33 17 10 -5z m-468 -88 c-8 -15 -15 -25 -16
-21 0 12 23 58 27 54 3 -2 -2 -17 -11 -33z m104 -2 c0 -5 -9 -19 -20 -32 l-21
-24 16 33 c15 31 25 41 25 23z m527 -176 c-4 -10 1 -9 23 3 26 15 31 15 44 2
17 -17 13 -27 -28 -58 -32 -24 -46 -21 -46 11 -1 22 -1 22 -14 -2 -16 -29 -27
-15 -31 40 -4 48 21 69 43 38 8 -11 11 -26 9 -34z m-593 -9 c-3 -15 -8 -25
-11 -23 -2 3 -1 17 3 31 3 15 8 25 11 23 2 -3 1 -17 -3 -31z m1770 18 c3 -8 2
-12 -4 -9 -6 3 -10 10 -10 16 0 14 7 11 14 -7z m295 -33 c-15 -5 -22 6 -14 19
6 9 10 9 16 -1 5 -8 4 -15 -2 -18z m-1654 2 c-4 -10 -11 -34 -15 -53 -8 -35
-8 -35 -9 -5 -1 39 9 75 21 75 6 0 7 -8 3 -17z m1288 -15 c6 -23 1 -38 -13
-38 -12 0 -23 37 -15 50 10 16 22 11 28 -12z m-1033 -53 c-7 -9 -15 -13 -18
-10 -3 2 1 11 8 20 7 9 15 13 18 10 3 -2 -1 -11 -8 -20z m1006 -2 c-7 -7 -26
7 -26 19 0 6 6 6 15 -2 9 -7 13 -15 11 -17z m64 -7 c0 -2 -7 -7 -16 -10 -8 -3
-12 -2 -9 4 6 10 25 14 25 6z m214 -5 c3 -5 -1 -11 -9 -14 -9 -4 -12 -1 -8 9
6 16 10 17 17 5z m-2557 -146 c0 -8 -4 -12 -9 -9 -4 3 -8 9 -8 15 0 5 4 9 8 9
5 0 9 -7 9 -15z m-13 -30 c3 -9 0 -15 -9 -15 -9 0 -12 6 -9 15 4 8 7 15 9 15
2 0 5 -7 9 -15z m1876 -200 c14 -16 10 -18 -14 -9 -9 3 -16 10 -16 15 0 14 16
11 30 -6z m217 -21 c-9 -9 -27 6 -27 22 0 13 2 13 16 -1 9 -9 14 -18 11 -21z
m-117 -56 c0 -16 -3 -19 -11 -11 -6 6 -8 16 -5 22 11 17 16 13 16 -11z m-2202
-61 c-23 -49 -45 -66 -28 -21 10 24 43 74 47 70 1 -1 -7 -23 -19 -49z m1882
-57 c0 -5 -2 -10 -4 -10 -3 0 -8 5 -11 10 -3 6 -1 10 4 10 6 0 11 -4 11 -10z
m243 -7 c-13 -2 -33 -2 -45 0 -13 2 -3 4 22 4 25 0 35 -2 23 -4z m-843 -7 c0
-2 -9 -6 -20 -9 -11 -3 -18 -1 -14 4 5 9 34 13 34 5z m-104 -77 c-9 -19 -15
-26 -16 -16 0 17 21 59 27 53 2 -2 -3 -18 -11 -37z m829 -139 c7 -11 -9 -11
-45 0 -24 8 -24 8 7 9 17 1 35 -3 38 -9z m42 -6 c-3 -3 -12 -4 -19 -1 -8 3 -5
6 6 6 11 1 17 -2 13 -5z m70 0 c-3 -3 -12 -4 -19 -1 -8 3 -5 6 6 6 11 1 17 -2
13 -5z m-1057 -108 c0 -2 -15 -9 -32 -15 -30 -10 -31 -9 -14 4 18 14 46 20 46
11z m1710 -360 c0 -3 -4 -8 -10 -11 -5 -3 -10 -1 -10 4 0 6 5 11 10 11 6 0 10
-2 10 -4z m-493 -32 c-3 -3 -12 -4 -19 -1 -8 3 -5 6 6 6 11 1 17 -2 13 -5z
m-247 -24 c-14 -10 -57 -38 -97 -62 -46 -27 -68 -45 -60 -50 8 -5 4 -8 -10 -8
-12 0 -23 -4 -25 -8 -1 -5 -34 -28 -71 -52 -73 -45 -73 -48 -41 -112 8 -16 14
-59 14 -105 1 -231 -190 -426 -415 -422 l-50 1 70 13 c83 15 178 50 196 71 7
8 25 22 39 29 50 26 131 186 86 169 -9 -3 -16 -11 -16 -17 0 -6 -3 -8 -6 -4
-4 3 3 18 15 33 33 42 24 59 -10 19 -39 -44 -50 -39 -15 8 27 35 57 108 55
136 0 9 -7 -2 -15 -23 -17 -48 -39 -73 -79 -93 -21 -11 -26 -11 -17 -2 12 13
18 99 6 99 -3 0 -21 -12 -40 -26 -33 -25 -48 -20 -21 8 52 56 77 92 77 115 l0
25 -41 -37 c-22 -20 -43 -34 -46 -32 -9 9 17 47 32 47 8 0 15 5 15 10 0 13
-10 12 -38 -4 -13 -7 -37 -10 -54 -8 l-31 5 24 13 24 13 -22 1 c-13 0 -23 5
-23 10 0 6 9 10 20 10 11 0 34 14 52 31 28 26 29 28 7 14 -21 -13 -52 -16
-143 -14 -64 1 -116 5 -116 10 0 5 5 9 12 9 9 0 9 3 1 11 -8 8 -19 7 -39 -4
-16 -8 -35 -12 -42 -10 -22 8 -59 -6 -94 -34 l-33 -28 18 30 c11 19 -3 7 -39
-29 -76 -80 -47 -22 33 65 81 88 157 122 273 123 98 1 159 -16 239 -69 l53
-35 76 36 c42 20 109 48 147 64 39 15 95 40 125 54 66 31 73 32 40 6z m480 10
c0 -5 -5 -10 -11 -10 -5 0 -7 5 -4 10 3 6 8 10 11 10 2 0 4 -4 4 -10z m737
-442 c-3 -8 -6 -5 -6 6 -1 11 2 17 5 13 3 -3 4 -12 1 -19z m-106 -14 c12 -14
11 -16 -5 -13 -11 2 -21 10 -24 17 -5 17 13 15 29 -4z m212 -24 c-6 -45 -13
-52 -13 -14 0 17 -4 34 -10 40 -6 6 -3 10 9 10 15 0 17 -6 14 -36z m4 -92 c-3
-7 -5 -2 -5 12 0 14 2 19 5 13 2 -7 2 -19 0 -25z m-2170 -218 c27 -10 41 -19
33 -19 -22 -1 -116 45 -126 60 -5 9 1 8 19 -4 14 -9 48 -26 74 -37z m80 -26
c-3 -3 -12 -4 -19 -1 -8 3 -5 6 6 6 11 1 17 -2 13 -5z m-426 -191 c13 -16 12
-17 -3 -4 -10 7 -18 15 -18 17 0 8 8 3 21 -13z m1097 -166 c-41 -50 -88 -86
-88 -66 0 5 5 9 11 9 6 0 9 7 5 15 -3 8 0 15 7 15 7 0 33 18 57 40 25 22 46
40 48 40 1 0 -17 -24 -40 -53z"/>
<path d="M3102 6190 c-14 -23 -5 -26 20 -6 10 7 15 16 11 19 -10 11 -18 8 -31
-13z"/>
<path d="M4173 8083 c15 -2 37 -2 50 0 12 2 0 4 -28 4 -27 0 -38 -2 -22 -4z"/>
<path d="M5197 8054 c4 -12 3 -15 -5 -10 -7 4 -12 3 -12 -3 0 -15 62 -59 106
-75 l39 -15 -31 0 c-17 -1 -52 10 -77 23 l-47 23 0 -23 c0 -14 14 -35 38 -55
20 -17 28 -28 17 -24 -42 15 -55 17 -55 6 0 -27 87 -55 198 -64 48 -4 52 -2
52 17 0 12 8 38 19 59 l19 37 -37 6 c-43 8 -123 43 -171 76 -59 40 -60 41 -53
22z"/>
<path d="M5340 8026 c0 -2 8 -10 18 -17 15 -13 16 -12 3 4 -13 16 -21 21 -21
13z"/>
<path d="M4947 7993 c-14 -14 -6 -22 40 -37 53 -18 83 -20 83 -6 0 14 -34 29
-72 32 -18 2 -36 6 -39 11 -3 4 -8 4 -12 0z"/>
<path d="M4340 7955 c55 -24 96 -120 63 -146 -15 -12 -16 -12 -11 8 4 16 2 20
-8 16 -9 -3 -14 2 -14 13 0 15 -2 16 -9 5 -5 -8 -7 -20 -5 -26 3 -7 -4 -15
-16 -18 -17 -4 -20 -2 -15 16 4 13 3 17 -2 11 -9 -13 -84 -24 -77 -12 3 4 2 9
-3 9 -107 17 -244 21 -311 9 -112 -21 -105 -30 23 -28 103 0 131 -3 200 -25
87 -27 220 -57 257 -57 13 0 40 9 60 19 19 11 38 18 40 15 11 -11 49 47 53 82
4 37 4 37 -4 7 -8 -32 -37 -83 -46 -83 -3 0 4 15 15 33 12 20 19 47 18 72 -1
40 -1 40 -5 5 -5 -35 -41 -96 -51 -85 -4 3 0 10 8 15 8 6 10 10 4 10 -6 0 -17
-7 -24 -15 -18 -22 -33 -19 -20 4 5 11 10 26 10 33 0 7 -6 2 -13 -11 -6 -14
-19 -27 -27 -29 -12 -4 -11 -1 3 15 28 32 22 80 -15 114 -18 16 -39 29 -48 29
-8 0 -26 3 -40 6 -16 3 -13 -1 10 -11z"/>
<path d="M3225 7900 c-3 -5 1 -10 10 -10 12 0 15 -6 10 -19 -3 -11 -1 -22 5
-26 10 -6 11 -5 15 33 1 12 0 20 -3 17 -3 -2 -11 0 -18 6 -8 7 -14 7 -19 -1z"/>
<path d="M3215 7863 c3 -8 5 -17 5 -19 0 -2 4 -4 8 -4 4 0 8 8 8 18 0 10 -6
19 -14 19 -7 0 -10 -7 -7 -14z"/>
<path d="M3281 7858 c0 -10 -5 -18 -9 -18 -5 0 -20 -10 -33 -22 -17 -14 -19
-19 -6 -15 9 4 17 3 17 -2 0 -5 -11 -11 -25 -13 -15 -3 -22 -1 -18 5 4 6 0 8
-10 4 -13 -5 -17 -1 -17 16 -1 17 -4 15 -16 -13 -11 -25 -17 -31 -23 -21 -7
11 -9 11 -13 0 -3 -8 1 -20 9 -27 17 -18 72 2 120 43 27 23 34 36 30 55 -2 14
-5 17 -6 8z m-11 -38 c0 -5 -5 -10 -11 -10 -5 0 -7 5 -4 10 3 6 8 10 11 10 2
0 4 -4 4 -10z"/>
<path d="M7130 7833 c13 -18 25 -33 25 -33 1 0 0 11 -3 25 -2 14 -7 23 -10 21
-3 -3 -12 0 -20 7 -9 6 -5 -3 8 -20z"/>
<path d="M7260 7803 c-21 -8 -30 -24 -30 -56 0 -40 78 -114 170 -161 92 -47
130 -46 130 5 0 24 -15 45 -72 104 -89 93 -150 126 -198 108z m160 -118 c15
-18 13 -22 -15 -27 -14 -2 -21 3 -23 20 -4 26 19 30 38 7z"/>
<path d="M4020 7773 c0 -5 11 -30 25 -57 39 -78 28 -178 -25 -228 -24 -22 -25
-13 -5 35 8 20 15 47 15 59 0 17 -7 10 -26 -27 -21 -41 -78 -114 -62 -80 31
65 39 90 44 132 l7 48 -34 -49 c-58 -82 -141 -110 -194 -63 -21 18 -25 27 -19
55 7 33 23 43 81 45 34 2 46 16 30 36 -9 12 -9 13 1 7 6 -4 12 -2 12 3 0 21
-48 11 -88 -19 -30 -21 -42 -37 -42 -55 0 -14 -5 -25 -11 -25 -6 0 -8 9 -4 20
5 15 2 20 -11 20 -15 0 -16 -8 -11 -62 7 -78 42 -130 117 -176 50 -30 61 -33
121 -30 81 4 125 33 159 105 22 48 22 53 4 163 l-5 35 30 -32 c17 -18 33 -33
37 -33 3 0 33 -16 67 -36 115 -68 149 -86 154 -81 2 3 -8 13 -24 23 -62 38
-130 85 -163 115 -19 17 -58 46 -86 64 -100 64 -75 66 48 4 113 -57 193 -79
287 -79 47 0 103 -3 123 -6 39 -7 42 -23 5 -25 -17 -1 -18 -2 -4 -6 9 -2 34 1
55 8 36 12 36 13 12 20 -24 8 -23 8 5 6 17 -1 35 2 41 5 6 4 21 9 35 12 13 2
44 12 69 21 25 9 69 24 98 33 28 9 52 21 52 26 0 14 -61 -2 -115 -31 -49 -27
-54 -27 -273 -31 -255 -5 -278 -1 -387 65 -80 47 -145 77 -145 66z"/>
<path d="M5990 7741 c0 -5 -8 -12 -17 -15 -11 -3 -8 -4 6 -3 24 2 44 27 22 27
-6 0 -11 -4 -11 -9z"/>
<path d="M3788 7723 c7 -3 16 -2 19 1 4 3 -2 6 -13 5 -11 0 -14 -3 -6 -6z"/>
<path d="M4763 7713 c-23 -9 -14 -33 12 -33 27 0 28 1 19 24 -6 17 -11 18 -31
9z"/>
<path d="M3743 7704 c4 -4 2 -13 -4 -21 -7 -8 -8 -13 -1 -13 5 0 15 6 21 14 9
11 8 15 -6 20 -10 4 -14 4 -10 0z"/>
<path d="M3910 7691 c0 -30 -44 -60 -96 -67 -30 -3 -54 -10 -54 -15 0 -16 68
-59 94 -59 17 0 39 11 57 30 26 25 30 36 27 72 -2 23 -9 43 -15 46 -7 2 -13
-1 -13 -7z"/>
<path d="M5917 7668 c-18 -18 -24 -26 -13 -17 12 9 32 23 46 32 13 10 19 17
12 17 -7 0 -27 -15 -45 -32z"/>
<path d="M4942 7661 c-45 -16 -100 -39 -123 -50 -69 -36 -216 -69 -296 -67
-40 1 -73 1 -73 -1 0 -1 18 -12 40 -23 50 -26 110 -26 217 1 69 16 91 26 117
53 28 30 123 74 199 92 27 6 38 24 15 24 -7 -1 -50 -14 -96 -29z"/>
<path d="M5418 7663 c7 -3 16 -2 19 1 4 3 -2 6 -13 5 -11 0 -14 -3 -6 -6z"/>
<path d="M5428 7643 c7 -3 16 -2 19 1 4 3 -2 6 -13 5 -11 0 -14 -3 -6 -6z"/>
<path d="M3769 7560 c13 -11 30 -20 39 -20 19 0 16 3 -28 23 l-35 17 24 -20z"/>
<path d="M7571 7564 c0 -11 3 -14 6 -6 3 7 2 16 -1 19 -3 4 -6 -2 -5 -13z"/>
<path d="M3446 7484 c-4 -9 -4 -19 -1 -22 2 -3 7 3 11 12 4 9 4 19 1 22 -2 3
-7 -3 -11 -12z"/>
<path d="M2563 7447 c-17 -23 -52 -63 -77 -89 -52 -53 -63 -88 -13 -42 17 17
48 42 68 56 24 18 39 40 48 68 7 23 11 44 8 46 -2 2 -17 -15 -34 -39z"/>
<path d="M5488 7473 c7 -3 16 -2 19 1 4 3 -2 6 -13 5 -11 0 -14 -3 -6 -6z"/>
<path d="M4315 7460 c7 -11 65 -43 65 -36 0 2 -16 13 -36 25 -19 12 -32 16
-29 11z"/>
<path d="M2460 7384 c-23 -30 -48 -69 -55 -87 -8 -18 -15 -27 -15 -22 -1 6 -8
-14 -16 -44 -8 -30 -13 -56 -11 -58 2 -2 23 37 46 87 23 49 46 90 51 90 6 0
10 6 10 14 0 7 6 19 14 25 13 11 29 51 20 51 -2 0 -22 -25 -44 -56z"/>
<path d="M2660 7380 c-35 -35 -26 -50 24 -44 60 9 136 -11 179 -47 20 -16 48
-55 64 -87 25 -50 28 -68 28 -150 0 -79 2 -89 11 -65 15 38 26 225 12 217 -6
-4 -8 1 -4 13 4 11 2 31 -3 44 -7 18 -10 20 -10 6 -1 -10 -6 -15 -11 -12 -6 4
-7 12 -3 18 4 7 -2 5 -13 -3 -10 -8 -16 -11 -12 -6 4 5 2 16 -5 26 -17 24
-103 89 -133 101 -43 16 -102 11 -124 -11z"/>
<path d="M2506 7272 c-88 -95 -110 -143 -104 -230 4 -60 7 -67 42 -100 37 -33
41 -34 98 -29 32 3 70 12 83 21 33 21 32 59 0 84 -29 23 -31 32 -7 32 9 0 29
-16 45 -35 25 -31 30 -33 52 -23 39 18 50 -1 49 -85 0 -52 -6 -83 -21 -112
-24 -46 -55 -156 -47 -165 8 -7 122 117 140 153 8 15 29 74 45 130 32 107 37
213 11 239 -9 9 -12 -7 -12 -73 0 -94 -19 -173 -50 -209 -11 -13 -20 -26 -20
-30 0 -9 -35 -50 -43 -50 -3 0 -3 9 0 20 3 11 9 20 14 20 13 0 11 157 -2 165
-7 5 -4 15 9 29 33 35 62 99 62 135 0 59 -66 126 -130 131 -76 7 -97 -10 -124
-97 -10 -32 -25 -69 -33 -83 -14 -24 -14 -24 -8 15 3 22 10 68 16 102 6 34 9
75 7 91 -3 28 -4 27 -72 -46z m49 -42 c4 -6 3 -10 -2 -9 -16 4 -43 -13 -36
-24 4 -6 1 -7 -6 -3 -9 6 -8 13 5 27 19 21 30 24 39 9z"/>
<path d="M2920 7347 c0 -5 9 -20 20 -34 11 -14 20 -22 20 -17 -1 12 -39 61
-40 51z"/>
<path d="M3245 7319 c-4 -6 -5 -12 -2 -15 2 -3 7 2 10 11 7 17 1 20 -8 4z"/>
<path d="M3410 7029 c-15 -28 -4 -69 18 -69 41 0 55 45 24 73 -24 22 -29 21
-42 -4z"/>
<path d="M2690 6940 c0 -11 7 -37 16 -58 l17 -37 9 31 c8 25 6 37 -7 58 -21
31 -35 34 -35 6z"/>
<path d="M2812 6930 c0 -19 2 -27 5 -17 2 9 2 25 0 35 -3 9 -5 1 -5 -18z"/>
<path d="M2847 6747 l-17 -32 20 24 c17 20 26 41 18 41 -2 0 -11 -15 -21 -33z"/>
<path d="M8421 6719 c16 -24 67 -171 90 -259 l12 -45 18 65 c24 84 24 124 -2
178 -21 43 -40 56 -109 77 -23 7 -24 7 -9 -16z"/>
<path d="M5366 6257 c3 -10 9 -15 12 -12 3 3 0 11 -7 18 -10 9 -11 8 -5 -6z"/>
<path d="M8942 6125 c-17 -37 -14 -45 4 -12 9 16 14 31 11 33 -2 2 -9 -7 -15
-21z"/>
<path d="M5721 6093 c-10 -26 -10 -27 4 -9 8 11 15 23 15 28 0 15 -7 8 -19
-19z"/>
<path d="M8882 6027 c-11 -19 -27 -47 -37 -63 l-17 -29 20 25 c24 29 66 100
59 100 -3 0 -14 -15 -25 -33z"/>
<path d="M1706 5944 c-4 -14 -5 -28 -3 -31 3 -2 8 8 11 23 4 14 5 28 3 31 -3
2 -8 -8 -11 -23z"/>
<path d="M1575 5894 c-32 -49 -29 -124 6 -124 9 0 49 103 49 128 0 27 -36 24
-55 -4z"/>
<path d="M8800 5901 c-5 -11 -44 -63 -86 -116 -41 -54 -73 -99 -71 -102 3 -2
15 11 28 29 12 18 30 40 38 49 37 37 119 159 107 159 -3 0 -10 -9 -16 -19z"/>
<path d="M8609 5653 c-13 -16 -12 -17 4 -4 9 7 17 15 17 17 0 8 -8 3 -21 -13z"/>
<path d="M1527 5598 c-6 -41 9 -60 21 -28 10 26 5 60 -8 60 -4 0 -10 -15 -13
-32z"/>
<path d="M8540 5585 c-24 -24 -41 -47 -38 -50 3 -3 24 17 48 45 23 27 40 50
38 50 -2 0 -24 -20 -48 -45z"/>
<path d="M8424 5498 l-29 -33 33 29 c30 28 37 36 29 36 -2 0 -16 -15 -33 -32z"/>
<path d="M6528 5453 c6 -2 18 -2 25 0 6 3 1 5 -13 5 -14 0 -19 -2 -12 -5z"/>
<path d="M8210 5280 c-239 -206 -322 -280 -314 -280 11 0 98 74 192 162 51 48
118 107 150 130 54 40 173 148 162 148 -3 0 -88 -72 -190 -160z"/>
<path d="M8542 5417 c-12 -13 -22 -29 -22 -36 0 -7 -5 -9 -12 -5 -7 5 -8 3 -4
-5 9 -15 8 -16 40 32 29 43 29 47 -2 14z"/>
<path d="M7839 5381 l-23 -18 31 4 c17 3 33 1 36 -5 7 -10 -73 -72 -92 -72
-20 0 -11 -46 12 -68 13 -12 36 -22 51 -22 21 0 27 -4 22 -15 -9 -24 10 -18
49 16 41 36 45 71 16 135 -24 53 -69 72 -102 45z"/>
<path d="M8112 5388 c-7 -7 -12 -18 -12 -26 0 -8 -9 -12 -22 -10 -27 4 -38
-29 -13 -38 24 -10 63 15 70 44 7 29 -6 47 -23 30z"/>
<path d="M8411 5271 c-41 -43 -78 -87 -84 -97 -6 -11 14 8 44 40 30 33 65 69
77 80 21 18 48 56 40 56 -2 0 -36 -36 -77 -79z"/>
<path d="M8409 5323 c-13 -16 -12 -17 4 -4 16 13 21 21 13 21 -2 0 -10 -8 -17
-17z"/>
<path d="M8349 5263 l-34 -38 38 34 c34 33 42 41 34 41 -2 0 -19 -17 -38 -37z"/>
<path d="M1520 5244 c0 -38 15 -74 30 -74 11 0 14 69 4 94 -12 31 -34 18 -34
-20z"/>
<path d="M6038 5173 c7 -3 16 -2 19 1 4 3 -2 6 -13 5 -11 0 -14 -3 -6 -6z"/>
<path d="M8170 5128 c-30 -28 -46 -46 -35 -40 19 10 104 93 95 92 -3 -1 -30
-24 -60 -52z"/>
<path d="M8217 5118 l-64 -63 61 54 c34 30 65 58 71 63 5 4 6 8 2 8 -4 0 -35
-28 -70 -62z"/>
<path d="M8099 5143 c-13 -16 -12 -17 4 -4 16 13 21 21 13 21 -2 0 -10 -8 -17
-17z"/>
<path d="M7767 5082 c-22 -24 -22 -44 -1 -40 24 4 41 35 28 48 -7 7 -16 5 -27
-8z"/>
<path d="M8089 5063 c-13 -16 -12 -17 4 -4 16 13 21 21 13 21 -2 0 -10 -8 -17
-17z"/>
<path d="M8119 5043 c-13 -16 -12 -17 4 -4 9 7 17 15 17 17 0 8 -8 3 -21 -13z"/>
<path d="M8055 5010 c-16 -17 -16 -20 -3 -15 9 4 19 13 22 21 7 19 2 18 -19
-6z"/>
<path d="M7877 4989 c7 -7 15 -10 18 -7 3 3 -2 9 -12 12 -14 6 -15 5 -6 -5z"/>
<path d="M7794 4948 l-29 -33 33 29 c17 17 32 31 32 33 0 8 -8 1 -36 -29z"/>
<path d="M7814 4938 l-29 -33 33 29 c17 17 32 31 32 33 0 8 -8 1 -36 -29z"/>
<path d="M7859 4953 c-13 -16 -12 -17 4 -4 9 7 17 15 17 17 0 8 -8 3 -21 -13z"/>
<path d="M7974 4938 l-29 -33 33 29 c17 17 32 31 32 33 0 8 -8 1 -36 -29z"/>
<path d="M8079 4943 c-13 -16 -12 -17 4 -4 16 13 21 21 13 21 -2 0 -10 -8 -17
-17z"/>
<path d="M1540 4893 c0 -66 13 -98 30 -73 9 14 4 104 -7 123 -13 22 -23 0 -23
-50z"/>
<path d="M7749 4883 l-24 -28 28 24 c15 14 27 26 27 28 0 8 -8 1 -31 -24z"/>
<path d="M4105 4880 c-3 -5 -1 -10 4 -10 6 0 11 5 11 10 0 6 -2 10 -4 10 -3 0
-8 -4 -11 -10z"/>
<path d="M7949 4853 c-13 -16 -12 -17 4 -4 9 7 17 15 17 17 0 8 -8 3 -21 -13z"/>
<path d="M7841 4782 c-30 -26 -75 -67 -100 -91 l-46 -44 46 39 c79 67 124 99
134 96 6 -2 7 0 2 4 -4 4 0 16 10 26 27 30 11 20 -46 -30z"/>
<path d="M7679 4783 c-13 -16 -12 -17 4 -4 9 7 17 15 17 17 0 8 -8 3 -21 -13z"/>
<path d="M7766 4751 l-30 -36 34 32 c19 18 32 34 29 36 -2 2 -17 -12 -33 -32z"/>
<path d="M7743 4773 c4 -3 1 -13 -6 -22 -11 -14 -10 -14 5 -2 16 12 16 31 1
31 -4 0 -3 -3 0 -7z"/>
<path d="M7639 4733 c-13 -16 -12 -17 4 -4 16 13 21 21 13 21 -2 0 -10 -8 -17
-17z"/>
<path d="M7685 4730 c-10 -11 -16 -22 -14 -24 2 -2 12 7 22 20 22 29 17 32 -8
4z"/>
<path d="M7589 4713 c-13 -16 -12 -17 4 -4 9 7 17 15 17 17 0 8 -8 3 -21 -13z"/>
<path d="M7809 4713 c-13 -16 -12 -17 4 -4 9 7 17 15 17 17 0 8 -8 3 -21 -13z"/>
<path d="M7695 4701 c-3 -5 -2 -12 3 -15 5 -3 9 1 9 9 0 17 -3 19 -12 6z"/>
<path d="M7639 4683 c-13 -16 -12 -17 4 -4 16 13 21 21 13 21 -2 0 -10 -8 -17
-17z"/>
<path d="M7600 4665 c-11 -13 -10 -14 4 -9 9 3 16 10 16 15 0 13 -6 11 -20 -6z"/>
<path d="M7720 4639 c-53 -48 -132 -105 -141 -102 -4 1 -14 -6 -24 -17 -9 -10
-23 -16 -30 -14 -7 3 -16 1 -20 -5 -4 -7 1 -8 12 -4 14 5 13 1 -5 -17 -13 -12
-26 -20 -29 -16 -3 3 -21 -7 -40 -21 -18 -14 -31 -28 -29 -31 3 -2 -8 -14 -25
-26 -119 -85 -149 -104 -149 -96 0 6 5 10 10 10 6 0 10 5 10 12 0 7 -7 5 -17
-5 -15 -12 -102 -72 -203 -138 -8 -5 -103 -67 -210 -137 -107 -70 -213 -139
-235 -152 -63 -38 -71 -49 -44 -58 17 -7 33 -2 63 18 23 15 73 48 111 72 39
25 104 67 145 94 41 27 82 52 90 56 8 3 53 34 100 67 47 33 119 83 160 112
138 95 263 193 251 197 -6 2 -9 8 -6 12 3 5 12 7 20 4 8 -3 33 10 57 30 24 19
81 65 128 102 101 80 117 94 105 94 -6 -1 -30 -19 -55 -41z m-260 -204 c0 -2
-10 -9 -22 -15 -22 -11 -22 -10 -4 4 21 17 26 19 26 11z m-490 -329 c0 -2 -8
-10 -17 -17 -16 -13 -17 -12 -4 4 13 16 21 21 21 13z"/>
<path d="M7440 4625 c-7 -8 -16 -13 -20 -10 -4 3 -14 -3 -21 -12 -8 -9 -27
-24 -44 -35 -16 -10 -25 -18 -18 -18 7 0 28 13 46 30 19 16 36 27 39 25 3 -3
13 4 23 15 10 11 16 20 13 20 -3 0 -11 -7 -18 -15z"/>
<path d="M7614 4618 l-19 -23 23 19 c12 11 22 21 22 23 0 8 -8 2 -26 -19z"/>
<path d="M7614 4588 l-19 -23 23 19 c21 18 27 26 19 26 -2 0 -12 -10 -23 -22z"/>
<path d="M7485 4582 c-12 -9 -27 -26 -35 -37 -8 -11 4 -4 25 15 22 19 42 36
44 38 2 1 0 2 -5 2 -5 0 -18 -8 -29 -18z"/>
<path d="M1625 4558 c-8 -31 11 -108 27 -108 7 0 9 18 5 56 -7 65 -23 90 -32
52z"/>
<path d="M7499 4553 c-13 -16 -12 -17 4 -4 16 13 21 21 13 21 -2 0 -10 -8 -17
-17z"/>
<path d="M7535 4549 c-3 -4 2 -6 10 -5 21 3 28 13 10 13 -9 0 -18 -4 -20 -8z"/>
<path d="M7294 4518 l-19 -23 25 20 c14 11 27 21 29 22 2 2 0 3 -6 3 -5 0 -18
-10 -29 -22z"/>
<path d="M7344 4489 c-82 -53 -117 -81 -75 -59 22 11 149 95 160 106 17 16
-18 -4 -85 -47z"/>
<path d="M7465 4500 c-25 -22 -43 -40 -38 -40 9 1 99 80 90 80 -3 0 -27 -18
-52 -40z"/>
<path d="M7374 4469 c-17 -18 -22 -28 -12 -24 14 6 55 55 45 55 -2 0 -16 -14
-33 -31z"/>
<path d="M4982 4445 c0 -16 2 -22 5 -12 2 9 2 23 0 30 -3 6 -5 -1 -5 -18z"/>
<path d="M7272 4410 c-18 -11 -41 -22 -50 -23 -40 -7 -207 -107 -237 -142 -5
-6 -22 -18 -36 -26 -15 -8 -46 -25 -70 -38 -24 -13 -53 -31 -64 -41 -11 -10
-38 -27 -60 -38 -76 -40 -12 -22 79 22 50 23 98 46 106 50 19 8 -17 1 -45 -9
-11 -4 4 7 33 24 29 18 76 50 105 71 28 22 58 40 65 40 7 0 10 4 7 10 -3 5 0
7 8 4 8 -3 28 6 44 20 17 14 50 34 74 45 40 17 91 50 79 51 -3 0 -20 -9 -38
-20z"/>
<path d="M7374 4422 c4 -7 -16 -26 -49 -48 -59 -40 -75 -57 -24 -27 59 35 94
69 79 78 -9 5 -11 4 -6 -3z"/>
<path d="M6891 4359 c-51 -37 -88 -59 -161 -98 -46 -24 -127 -82 -95 -68 64
28 305 181 305 193 0 8 -7 4 -49 -27z"/>
<path d="M7185 4326 c-49 -30 -98 -61 -107 -71 -11 -12 -18 -14 -18 -6 0 7 -5
9 -10 6 -6 -4 -8 -11 -5 -16 3 -5 -1 -6 -9 -3 -9 3 -16 2 -16 -3 0 -6 -15 -18
-34 -28 -19 -11 -33 -22 -30 -26 5 -8 -40 -39 -57 -39 -7 0 -20 -7 -30 -16 -9
-8 -48 -26 -86 -39 -38 -12 -111 -45 -163 -72 -52 -27 -122 -60 -155 -74 l-60
-26 39 -16 c21 -9 43 -14 49 -10 6 4 8 0 4 -10 -3 -9 -2 -19 3 -22 6 -4 10 0
10 7 0 8 15 22 33 32 l32 17 -30 -25 c-16 -14 -26 -26 -22 -26 9 0 177 111
227 151 19 15 62 43 95 62 33 19 59 39 58 45 -2 6 3 9 11 6 7 -3 30 11 51 30
20 19 69 51 108 72 78 39 108 61 68 49 -16 -5 -21 -4 -17 4 4 6 18 11 31 11
13 0 39 13 57 28 18 16 44 36 58 45 52 36 1 13 -85 -37z m-355 -240 c0 -6
-127 -66 -139 -66 -5 0 -13 -5 -17 -11 -4 -8 1 -9 17 -4 22 7 21 6 -6 -17 -35
-29 -100 -65 -91 -49 4 6 22 18 41 27 19 9 35 20 35 25 0 13 -9 11 -38 -9 -32
-22 -141 -66 -147 -60 -3 2 30 20 73 38 42 18 84 39 92 46 22 18 154 82 173
83 4 1 7 -1 7 -3z m-348 -180 c7 4 8 2 4 -5 -9 -13 -26 -5 -25 12 0 9 2 8 6
-1 2 -6 10 -9 15 -6z"/>
<path d="M1676 4343 c3 -16 15 -59 27 -96 16 -52 23 -63 29 -48 8 21 -4 75
-29 134 -19 43 -36 50 -27 10z"/>
<path d="M7349 4283 c-13 -16 -12 -17 4 -4 16 13 21 21 13 21 -2 0 -10 -8 -17
-17z"/>
<path d="M6490 4117 c-54 -31 -88 -57 -75 -57 8 0 135 81 135 86 0 6 0 6 -60
-29z"/>
<path d="M6655 4084 c-22 -13 -53 -31 -70 -40 -28 -16 -61 -44 -52 -44 9 0
103 55 141 82 47 34 36 35 -19 2z"/>
<path d="M6365 4050 c3 -5 8 -10 11 -10 2 0 4 5 4 10 0 6 -5 10 -11 10 -5 0
-7 -4 -4 -10z"/>
<path d="M6293 4035 c0 -8 4 -15 9 -15 4 0 8 4 8 9 0 6 -4 12 -8 15 -5 3 -9
-1 -9 -9z"/>
<path d="M6320 4029 c0 -5 5 -7 10 -4 6 3 10 8 10 11 0 2 -4 4 -10 4 -5 0 -10
-5 -10 -11z"/>
<path d="M6351 3891 c-9 -6 -10 -11 -2 -15 6 -4 16 -4 23 0 6 4 8 3 5 -3 -4
-6 -1 -13 7 -16 15 -6 16 9 3 31 -10 14 -17 15 -36 3z"/>
<path d="M6565 3737 c23 -16 55 -28 55 -22 0 6 -56 35 -67 35 -4 0 1 -6 12
-13z"/>
<path d="M6660 3666 c0 -3 9 -10 20 -16 11 -6 20 -8 20 -6 0 3 -9 10 -20 16
-11 6 -20 8 -20 6z"/>
<path d="M6748 3613 c7 -3 16 -2 19 1 4 3 -2 6 -13 5 -11 0 -14 -3 -6 -6z"/>
<path d="M5543 3594 c-18 -8 -33 -17 -33 -20 0 -9 63 7 85 22 19 14 19 14 0
13 -11 0 -35 -7 -52 -15z"/>
<path d="M6805 3580 c-3 -5 -1 -10 4 -10 6 0 11 5 11 10 0 6 -2 10 -4 10 -3 0
-8 -4 -11 -10z"/>
<path d="M5250 3455 c-17 -10 -20 -14 -9 -15 9 0 22 7 29 15 15 18 12 18 -20
0z"/>
<path d="M2301 3231 c-11 -7 -11 -13 -1 -32 19 -35 79 -109 125 -152 41 -39
117 -89 98 -65 -53 68 -89 120 -113 169 -43 84 -70 104 -109 80z"/>
<path d="M4100 3220 c-19 -11 -31 -19 -27 -20 11 0 67 29 67 35 0 7 -1 7 -40
-15z"/>
<path d="M4142 3201 c-29 -10 -56 -22 -60 -26 -12 -13 61 7 98 26 44 23 30 23
-38 0z"/>
<path d="M3910 3173 c-36 -14 -94 -36 -130 -50 -50 -18 -56 -22 -27 -18 34 6
75 20 222 78 23 9 31 16 20 16 -11 0 -49 -12 -85 -26z"/>
<path d="M4420 3130 c-8 -5 -10 -10 -5 -10 6 0 17 5 25 10 8 5 11 10 5 10 -5
0 -17 -5 -25 -10z"/>
<path d="M4404 3094 c-18 -14 -18 -14 6 -3 31 14 36 19 24 19 -6 0 -19 -7 -30
-16z"/>
<path d="M3528 3023 c7 -3 16 -2 19 1 4 3 -2 6 -13 5 -11 0 -14 -3 -6 -6z"/>
<path d="M5160 2995 c-14 -8 -20 -14 -14 -15 5 0 19 7 30 15 24 18 16 19 -16
0z"/>
<path d="M4695 2780 c-13 -6 -15 -9 -5 -9 8 0 22 4 30 9 18 12 2 12 -25 0z"/>
<path d="M1735 1628 c-48 -79 -107 -174 -131 -212 -24 -38 -44 -73 -44 -77 0
-13 69 -30 143 -36 61 -5 73 -3 132 26 36 18 78 48 95 69 33 39 60 116 60 166
-1 41 -30 104 -66 140 -28 28 -83 66 -95 66 -4 0 -46 -64 -94 -142z"/>
<path d="M4665 9750 c-4 -6 -4 -29 0 -50 6 -34 11 -40 31 -40 27 0 40 33 30
75 -5 18 -13 25 -31 25 -13 0 -27 -5 -30 -10z"/>
<path d="M6582 9478 c-7 -7 -12 -18 -12 -25 0 -18 29 -16 37 3 8 21 -10 37
-25 22z"/>
<path d="M3314 9346 c-9 -24 3 -47 21 -40 19 8 19 28 0 44 -12 10 -16 9 -21
-4z"/>
<path d="M2682 9008 c-16 -16 -15 -34 4 -63 19 -29 40 -32 52 -7 11 20 6 40
-16 65 -18 20 -24 21 -40 5z"/>
<path d="M1536 7958 c-8 -12 -13 -25 -10 -30 9 -15 39 -8 51 12 11 16 10 21
-7 30 -15 8 -22 6 -34 -12z"/>
<path d="M8728 7859 c-42 -21 -46 -30 -22 -49 12 -11 17 -11 28 1 11 13 39 70
33 69 -1 -1 -19 -10 -39 -21z"/>
<path d="M9142 7213 c2 -17 10 -29 21 -31 13 -3 17 3 17 27 0 25 -4 31 -21 31
-16 0 -20 -5 -17 -27z"/>
<path d="M966 6944 c-8 -21 9 -51 34 -59 39 -12 66 35 38 63 -17 17 -65 15
-72 -4z"/>
<path d="M810 6375 c-16 -19 0 -41 36 -48 29 -5 38 6 30 39 -7 28 -46 33 -66
9z"/>
<path d="M8542 4690 c0 -14 2 -19 5 -12 2 6 2 18 0 25 -3 6 -5 1 -5 -13z"/>
<path d="M8333 3858 c-33 -42 -84 -121 -97 -150 -7 -18 -21 -50 -30 -70 -9
-21 -15 -38 -12 -38 4 0 115 187 140 238 17 33 16 42 -1 20z"/>
<path d="M3950 2065 c0 -14 102 -59 216 -93 147 -45 219 -56 219 -32 0 10 -41
24 -150 50 -82 20 -176 46 -208 58 -57 22 -77 26 -77 17z"/>
<path d="M5530 1920 l-35 -7 35 -1 c19 0 46 4 60 8 l25 8 -25 0 c-14 0 -41 -4
-60 -8z"/>
<path d="M9530 5116 c0 -24 23 -56 40 -56 17 0 21 5 18 28 -2 21 -9 28 -30 30
-16 2 -28 1 -28 -2z"/>
<path d="M5640 4346 c0 -2 7 -7 16 -10 8 -3 12 -2 9 4 -6 10 -25 14 -25 6z"/>
<path d="M5712 4294 c10 -10 20 -16 22 -13 3 3 -5 11 -17 18 -21 13 -21 12 -5
-5z"/>
<path d="M6525 3640 c-3 -5 -2 -10 4 -10 5 0 13 5 16 10 3 6 2 10 -4 10 -5 0
-13 -4 -16 -10z"/>
<path d="M6551 3617 c2 -1 13 -9 24 -17 19 -14 19 -14 6 3 -7 9 -18 17 -24 17
-6 0 -8 -1 -6 -3z"/>
<path d="M6650 3550 c0 -6 7 -10 15 -10 8 0 15 2 15 4 0 2 -7 6 -15 10 -8 3
-15 1 -15 -4z"/>
<path d="M6680 3526 c0 -2 9 -6 20 -9 11 -3 18 -1 14 4 -5 9 -34 13 -34 5z"/>
<path d="M6730 3500 c0 -6 4 -10 9 -10 5 0 17 -7 25 -16 13 -12 16 -13 16 -1
0 7 -11 19 -25 25 -15 7 -25 8 -25 2z"/>
<path d="M6810 3486 c0 -2 8 -10 18 -17 15 -13 16 -12 3 4 -13 16 -21 21 -21
13z"/>
<path d="M1017 3666 c-4 -10 -1 -13 9 -9 7 3 14 0 14 -6 0 -6 -10 -11 -21 -11
-17 0 -19 -3 -10 -14 13 -15 35 -16 48 -1 5 4 2 5 -6 0 -11 -6 -13 -4 -8 8 7
19 -1 47 -13 47 -4 0 -10 -7 -13 -14z"/>
<path d="M6210 3634 c0 -11 50 -54 62 -54 6 0 3 9 -8 21 -21 23 -54 43 -54 33z"/>
<path d="M6325 3519 c-4 -6 -4 -13 -1 -16 8 -8 36 5 36 17 0 13 -27 13 -35 -1z"/>
<path d="M6378 3487 c-28 -11 -35 -22 -20 -31 5 -3 21 6 38 19 31 26 26 29
-18 12z"/>
<path d="M6440 3430 c20 -13 33 -13 25 0 -3 6 -14 10 -23 10 -15 0 -15 -2 -2
-10z"/>
<path d="M6400 3410 c0 -5 7 -10 15 -10 9 0 18 -7 21 -15 6 -15 34 -21 34 -7
0 12 -39 42 -55 42 -8 0 -15 -4 -15 -10z"/>
<path d="M6480 3400 c0 -5 5 -10 11 -10 5 0 7 5 4 10 -3 6 -8 10 -11 10 -2 0
-4 -4 -4 -10z"/>
<path d="M6488 3368 c-34 -12 -35 -18 -3 -48 25 -23 25 -23 60 -4 39 21 33 40
-8 25 -14 -6 -29 -6 -32 -2 -3 5 9 14 25 20 17 5 30 12 30 15 0 9 -42 6 -72
-6z"/>
<path d="M5845 3445 c-38 -19 -59 -32 -45 -29 29 8 120 52 120 59 0 7 3 8 -75
-30z"/>
<path d="M8547 2152 c-36 -22 -52 -77 -37 -131 12 -47 27 -60 73 -68 42 -6
102 25 113 60 18 57 -5 116 -57 143 -36 18 -58 17 -92 -4z m91 -25 c9 -7 12
-23 9 -44 -3 -18 -1 -47 5 -64 14 -41 6 -45 -28 -15 -25 22 -27 27 -16 45 11
20 17 61 8 61 -2 0 -12 3 -22 7 -16 6 -17 0 -11 -58 6 -69 -5 -107 -23 -79
-15 23 -13 157 3 163 16 6 58 -3 75 -16z"/>
<path d="M5035 719 c-37 -72 -65 -132 -63 -134 5 -5 288 -11 288 -6 0 13 -144
271 -151 271 -4 0 -37 -59 -74 -131z"/>
</g>
</svg>
